<svg width="186" height="137" viewBox="0 0 186 137" fill="none" xmlns="http://www.w3.org/2000/svg">
<path d="M170 127.508C170 123.717 173.073 120.644 176.864 120.644C180.656 120.644 183.729 123.717 183.729 127.508C183.729 131.3 180.656 134.373 176.864 134.373C173.073 134.373 170 131.3 170 127.508Z" stroke="#A07558" stroke-width="4"/>
<path d="M146 127.508C146 123.717 149.073 120.644 152.864 120.644C156.656 120.644 159.729 123.717 159.729 127.508C159.729 131.3 156.656 134.373 152.864 134.373C149.073 134.373 146 131.3 146 127.508Z" stroke="#A07558" stroke-width="4"/>
<path d="M122 127.508C122 123.717 125.073 120.644 128.864 120.644C132.656 120.644 135.729 123.717 135.729 127.508C135.729 131.3 132.656 134.373 128.864 134.373C125.073 134.373 122 131.3 122 127.508Z" stroke="#A07558" stroke-width="4"/>
<path d="M98 127.508C98 123.717 101.073 120.644 104.864 120.644C108.656 120.644 111.729 123.717 111.729 127.508C111.729 131.3 108.656 134.373 104.864 134.373C101.073 134.373 98 131.3 98 127.508Z" stroke="#A07558" stroke-width="4"/>
<path d="M74 127.508C74 123.717 77.0733 120.644 80.8644 120.644C84.6555 120.644 87.7288 123.717 87.7288 127.508C87.7288 131.3 84.6555 134.373 80.8644 134.373C77.0733 134.373 74 131.3 74 127.508Z" stroke="#A07558" stroke-width="4"/>
<path d="M50 127.508C50 123.717 53.0733 120.644 56.8644 120.644C60.6555 120.644 63.7288 123.717 63.7288 127.508C63.7288 131.3 60.6555 134.373 56.8644 134.373C53.0733 134.373 50 131.3 50 127.508Z" stroke="#A07558" stroke-width="4"/>
<path d="M26 127.508C26 123.717 29.0733 120.644 32.8644 120.644C36.6555 120.644 39.7288 123.717 39.7288 127.508C39.7288 131.3 36.6555 134.373 32.8644 134.373C29.0733 134.373 26 131.3 26 127.508Z" stroke="#A07558" stroke-width="4"/>
<path d="M2 127.508C2 123.717 5.0733 120.644 8.86441 120.644C12.6555 120.644 15.7288 123.717 15.7288 127.508C15.7288 131.3 12.6555 134.373 8.86441 134.373C5.0733 134.373 2 131.3 2 127.508Z" stroke="#A07558" stroke-width="4"/>
<path d="M170 103.78C170 99.9886 173.073 96.9153 176.864 96.9153C180.656 96.9153 183.729 99.9886 183.729 103.78C183.729 107.571 180.656 110.644 176.864 110.644C173.073 110.644 170 107.571 170 103.78Z" stroke="#A07558" stroke-width="4"/>
<path d="M146 103.78C146 99.9886 149.073 96.9153 152.864 96.9153C156.656 96.9153 159.729 99.9886 159.729 103.78C159.729 107.571 156.656 110.644 152.864 110.644C149.073 110.644 146 107.571 146 103.78Z" stroke="#A07558" stroke-width="4"/>
<path d="M122 103.78C122 99.9886 125.073 96.9153 128.864 96.9153C132.656 96.9153 135.729 99.9886 135.729 103.78C135.729 107.571 132.656 110.644 128.864 110.644C125.073 110.644 122 107.571 122 103.78Z" stroke="#A07558" stroke-width="4"/>
<path d="M98 103.78C98 99.9886 101.073 96.9153 104.864 96.9153C108.656 96.9153 111.729 99.9886 111.729 103.78C111.729 107.571 108.656 110.644 104.864 110.644C101.073 110.644 98 107.571 98 103.78Z" stroke="#A07558" stroke-width="4"/>
<path d="M74 103.78C74 99.9886 77.0733 96.9153 80.8644 96.9153C84.6555 96.9153 87.7288 99.9886 87.7288 103.78C87.7288 107.571 84.6555 110.644 80.8644 110.644C77.0733 110.644 74 107.571 74 103.78Z" stroke="#A07558" stroke-width="4"/>
<path d="M50 103.78C50 99.9886 53.0733 96.9153 56.8644 96.9153C60.6555 96.9153 63.7288 99.9886 63.7288 103.78C63.7288 107.571 60.6555 110.644 56.8644 110.644C53.0733 110.644 50 107.571 50 103.78Z" stroke="#A07558" stroke-width="4"/>
<path d="M26 103.78C26 99.9886 29.0733 96.9153 32.8644 96.9153C36.6555 96.9153 39.7288 99.9886 39.7288 103.78C39.7288 107.571 36.6555 110.644 32.8644 110.644C29.0733 110.644 26 107.571 26 103.78Z" stroke="#A07558" stroke-width="4"/>
<path d="M2 103.78C2 99.9886 5.0733 96.9153 8.86441 96.9153C12.6555 96.9153 15.7288 99.9886 15.7288 103.78C15.7288 107.571 12.6555 110.644 8.86441 110.644C5.0733 110.644 2 107.571 2 103.78Z" stroke="#A07558" stroke-width="4"/>
<path d="M170 80.0509C170 76.2598 173.073 73.1865 176.864 73.1865C180.656 73.1865 183.729 76.2598 183.729 80.0509C183.729 83.842 180.656 86.9153 176.864 86.9153C173.073 86.9153 170 83.842 170 80.0509Z" stroke="#A07558" stroke-width="4"/>
<path d="M146 80.0509C146 76.2598 149.073 73.1865 152.864 73.1865C156.656 73.1865 159.729 76.2598 159.729 80.0509C159.729 83.842 156.656 86.9153 152.864 86.9153C149.073 86.9153 146 83.842 146 80.0509Z" stroke="#A07558" stroke-width="4"/>
<path d="M122 80.0509C122 76.2598 125.073 73.1865 128.864 73.1865C132.656 73.1865 135.729 76.2598 135.729 80.0509C135.729 83.842 132.656 86.9153 128.864 86.9153C125.073 86.9153 122 83.842 122 80.0509Z" stroke="#A07558" stroke-width="4"/>
<path d="M98 80.0509C98 76.2598 101.073 73.1865 104.864 73.1865C108.656 73.1865 111.729 76.2598 111.729 80.0509C111.729 83.842 108.656 86.9153 104.864 86.9153C101.073 86.9153 98 83.842 98 80.0509Z" stroke="#A07558" stroke-width="4"/>
<path d="M74 80.0509C74 76.2598 77.0733 73.1865 80.8644 73.1865C84.6555 73.1865 87.7288 76.2598 87.7288 80.0509C87.7288 83.842 84.6555 86.9153 80.8644 86.9153C77.0733 86.9153 74 83.842 74 80.0509Z" stroke="#A07558" stroke-width="4"/>
<path d="M50 80.0509C50 76.2598 53.0733 73.1865 56.8644 73.1865C60.6555 73.1865 63.7288 76.2598 63.7288 80.0509C63.7288 83.842 60.6555 86.9153 56.8644 86.9153C53.0733 86.9153 50 83.842 50 80.0509Z" stroke="#A07558" stroke-width="4"/>
<path d="M26 80.0509C26 76.2598 29.0733 73.1865 32.8644 73.1865C36.6555 73.1865 39.7288 76.2598 39.7288 80.0509C39.7288 83.842 36.6555 86.9153 32.8644 86.9153C29.0733 86.9153 26 83.842 26 80.0509Z" stroke="#A07558" stroke-width="4"/>
<path d="M2 80.0509C2 76.2598 5.0733 73.1865 8.86441 73.1865C12.6555 73.1865 15.7288 76.2598 15.7288 80.0509C15.7288 83.842 12.6555 86.9153 8.86441 86.9153C5.0733 86.9153 2 83.842 2 80.0509Z" stroke="#A07558" stroke-width="4"/>
<path d="M170 56.3221C170 52.5309 173.073 49.4576 176.864 49.4576C180.656 49.4576 183.729 52.5309 183.729 56.3221C183.729 60.1132 180.656 63.1865 176.864 63.1865C173.073 63.1865 170 60.1132 170 56.3221Z" stroke="#A07558" stroke-width="4"/>
<path d="M146 56.3221C146 52.5309 149.073 49.4576 152.864 49.4576C156.656 49.4576 159.729 52.5309 159.729 56.3221C159.729 60.1132 156.656 63.1865 152.864 63.1865C149.073 63.1865 146 60.1132 146 56.3221Z" stroke="#A07558" stroke-width="4"/>
<path d="M122 56.3221C122 52.5309 125.073 49.4576 128.864 49.4576C132.656 49.4576 135.729 52.5309 135.729 56.3221C135.729 60.1132 132.656 63.1865 128.864 63.1865C125.073 63.1865 122 60.1132 122 56.3221Z" stroke="#A07558" stroke-width="4"/>
<path d="M98 56.3221C98 52.5309 101.073 49.4576 104.864 49.4576C108.656 49.4576 111.729 52.5309 111.729 56.3221C111.729 60.1132 108.656 63.1865 104.864 63.1865C101.073 63.1865 98 60.1132 98 56.3221Z" stroke="#A07558" stroke-width="4"/>
<path d="M74 56.3221C74 52.5309 77.0733 49.4576 80.8644 49.4576C84.6555 49.4576 87.7288 52.5309 87.7288 56.3221C87.7288 60.1132 84.6555 63.1865 80.8644 63.1865C77.0733 63.1865 74 60.1132 74 56.3221Z" stroke="#A07558" stroke-width="4"/>
<path d="M50 56.3221C50 52.5309 53.0733 49.4576 56.8644 49.4576C60.6555 49.4576 63.7288 52.5309 63.7288 56.3221C63.7288 60.1132 60.6555 63.1865 56.8644 63.1865C53.0733 63.1865 50 60.1132 50 56.3221Z" stroke="#A07558" stroke-width="4"/>
<path d="M26 56.3221C26 52.5309 29.0733 49.4576 32.8644 49.4576C36.6555 49.4576 39.7288 52.5309 39.7288 56.3221C39.7288 60.1132 36.6555 63.1865 32.8644 63.1865C29.0733 63.1865 26 60.1132 26 56.3221Z" stroke="#A07558" stroke-width="4"/>
<path d="M2 56.3221C2 52.5309 5.0733 49.4576 8.86441 49.4576C12.6555 49.4576 15.7288 52.5309 15.7288 56.3221C15.7288 60.1132 12.6555 63.1865 8.86441 63.1865C5.0733 63.1865 2 60.1132 2 56.3221Z" stroke="#A07558" stroke-width="4"/>
<path d="M170 32.5932C170 28.8021 173.073 25.7288 176.864 25.7288C180.656 25.7288 183.729 28.8021 183.729 32.5932C183.729 36.3843 180.656 39.4576 176.864 39.4576C173.073 39.4576 170 36.3843 170 32.5932Z" stroke="#A07558" stroke-width="4"/>
<path d="M146 32.5932C146 28.8021 149.073 25.7288 152.864 25.7288C156.656 25.7288 159.729 28.8021 159.729 32.5932C159.729 36.3843 156.656 39.4576 152.864 39.4576C149.073 39.4576 146 36.3843 146 32.5932Z" stroke="#A07558" stroke-width="4"/>
<path d="M122 32.5932C122 28.8021 125.073 25.7288 128.864 25.7288C132.656 25.7288 135.729 28.8021 135.729 32.5932C135.729 36.3843 132.656 39.4576 128.864 39.4576C125.073 39.4576 122 36.3843 122 32.5932Z" stroke="#A07558" stroke-width="4"/>
<path d="M98 32.5932C98 28.8021 101.073 25.7288 104.864 25.7288C108.656 25.7288 111.729 28.8021 111.729 32.5932C111.729 36.3843 108.656 39.4576 104.864 39.4576C101.073 39.4576 98 36.3843 98 32.5932Z" stroke="#A07558" stroke-width="4"/>
<path d="M74 32.5932C74 28.8021 77.0733 25.7288 80.8644 25.7288C84.6555 25.7288 87.7288 28.8021 87.7288 32.5932C87.7288 36.3843 84.6555 39.4576 80.8644 39.4576C77.0733 39.4576 74 36.3843 74 32.5932Z" stroke="#A07558" stroke-width="4"/>
<path d="M50 32.5932C50 28.8021 53.0733 25.7288 56.8644 25.7288C60.6555 25.7288 63.7288 28.8021 63.7288 32.5932C63.7288 36.3843 60.6555 39.4576 56.8644 39.4576C53.0733 39.4576 50 36.3843 50 32.5932Z" stroke="#A07558" stroke-width="4"/>
<path d="M26 32.5932C26 28.8021 29.0733 25.7288 32.8644 25.7288C36.6555 25.7288 39.7288 28.8021 39.7288 32.5932C39.7288 36.3843 36.6555 39.4576 32.8644 39.4576C29.0733 39.4576 26 36.3843 26 32.5932Z" stroke="#A07558" stroke-width="4"/>
<path d="M2 32.5932C2 28.8021 5.0733 25.7288 8.86441 25.7288C12.6555 25.7288 15.7288 28.8021 15.7288 32.5932C15.7288 36.3843 12.6555 39.4576 8.86441 39.4576C5.0733 39.4576 2 36.3843 2 32.5932Z" stroke="#A07558" stroke-width="4"/>
<path d="M170 8.86441C170 5.0733 173.073 2 176.864 2C180.656 2 183.729 5.0733 183.729 8.86441C183.729 12.6555 180.656 15.7288 176.864 15.7288C173.073 15.7288 170 12.6555 170 8.86441Z" stroke="#A07558" stroke-width="4"/>
<path d="M146 8.86441C146 5.0733 149.073 2 152.864 2C156.656 2 159.729 5.0733 159.729 8.86441C159.729 12.6555 156.656 15.7288 152.864 15.7288C149.073 15.7288 146 12.6555 146 8.86441Z" stroke="#A07558" stroke-width="4"/>
<path d="M122 8.86441C122 5.0733 125.073 2 128.864 2C132.656 2 135.729 5.0733 135.729 8.86441C135.729 12.6555 132.656 15.7288 128.864 15.7288C125.073 15.7288 122 12.6555 122 8.86441Z" stroke="#A07558" stroke-width="4"/>
<path d="M98 8.86441C98 5.0733 101.073 2 104.864 2C108.656 2 111.729 5.0733 111.729 8.86441C111.729 12.6555 108.656 15.7288 104.864 15.7288C101.073 15.7288 98 12.6555 98 8.86441Z" stroke="#A07558" stroke-width="4"/>
<path d="M74 8.86441C74 5.0733 77.0733 2 80.8644 2C84.6555 2 87.7288 5.0733 87.7288 8.86441C87.7288 12.6555 84.6555 15.7288 80.8644 15.7288C77.0733 15.7288 74 12.6555 74 8.86441Z" stroke="#A07558" stroke-width="4"/>
<path d="M50 8.86441C50 5.0733 53.0733 2 56.8644 2C60.6555 2 63.7288 5.0733 63.7288 8.86441C63.7288 12.6555 60.6555 15.7288 56.8644 15.7288C53.0733 15.7288 50 12.6555 50 8.86441Z" stroke="#A07558" stroke-width="4"/>
<path d="M26 8.86441C26 5.0733 29.0733 2 32.8644 2C36.6555 2 39.7288 5.0733 39.7288 8.86441C39.7288 12.6555 36.6555 15.7288 32.8644 15.7288C29.0733 15.7288 26 12.6555 26 8.86441Z" stroke="#A07558" stroke-width="4"/>
<path d="M2 8.86441C2 5.0733 5.0733 2 8.86441 2C12.6555 2 15.7288 5.0733 15.7288 8.86441C15.7288 12.6555 12.6555 15.7288 8.86441 15.7288C5.0733 15.7288 2 12.6555 2 8.86441Z" stroke="#A07558" stroke-width="4"/>
</svg>
