<svg width="574" height="574" viewBox="0 0 574 574" fill="none" xmlns="http://www.w3.org/2000/svg">
<g filter="url(#filter0_d_17_66)">
<circle cx="286.865" cy="287.115" r="210" transform="rotate(-30 286.865 287.115)" fill="#806858"/>
<circle cx="286.865" cy="287.115" r="207.5" transform="rotate(-30 286.865 287.115)" stroke="#594F3E" stroke-width="5"/>
</g>
<circle cx="286.865" cy="287.115" r="199" transform="rotate(-30 286.865 287.115)" stroke="#4C3E34" stroke-width="22"/>
<path fill-rule="evenodd" clip-rule="evenodd" d="M420.381 376.833C374.067 395.785 319.612 392.943 273.934 364.4C198.514 317.272 175.579 217.928 222.707 142.509C223.706 140.909 224.729 139.333 225.775 137.78C195.62 150.12 168.916 171.7 150.332 201.441C103.204 276.86 126.14 376.204 201.559 423.332C275.379 469.459 372.119 448.465 420.381 376.833Z" fill="#A68772"/>
<circle cx="286.813" cy="286.907" r="159.528" transform="rotate(-58 286.813 286.907)" stroke="#665346" stroke-width="3"/>
<circle cx="286.865" cy="287.115" r="202.5" transform="rotate(-30 286.865 287.115)" stroke="#665346" stroke-width="15"/>
<g filter="url(#filter1_d_17_66)">
<path d="M266.786 365.636V202H277.268V365.636H266.786ZM299.577 252.753C298.895 246.702 296.082 242.014 291.139 238.69C286.196 235.324 279.974 233.641 272.474 233.641C267.105 233.641 262.46 234.493 258.54 236.197C254.619 237.859 251.572 240.161 249.399 243.101C247.268 245.999 246.203 249.301 246.203 253.009C246.203 256.119 246.928 258.804 248.376 261.063C249.868 263.321 251.807 265.217 254.193 266.751C256.622 268.243 259.222 269.5 261.991 270.523C264.761 271.503 267.425 272.313 269.982 272.952L282.766 276.276C286.942 277.298 291.224 278.683 295.614 280.43C300.003 282.178 304.072 284.479 307.822 287.334C311.572 290.189 314.598 293.726 316.899 297.945C319.243 302.163 320.415 307.213 320.415 313.094C320.415 320.509 318.497 327.092 314.662 332.845C310.869 338.598 305.351 343.136 298.107 346.46C290.905 349.784 282.19 351.446 271.963 351.446C262.162 351.446 253.682 349.891 246.523 346.78C239.364 343.669 233.76 339.259 229.712 333.548C225.663 327.795 223.426 320.977 223 313.094H242.815C243.199 317.824 244.733 321.766 247.418 324.919C250.145 328.03 253.618 330.352 257.837 331.886C262.098 333.378 266.764 334.124 271.835 334.124C277.418 334.124 282.382 333.25 286.729 331.503C291.118 329.713 294.57 327.241 297.084 324.088C299.598 320.892 300.855 317.163 300.855 312.902C300.855 309.024 299.747 305.849 297.531 303.378C295.358 300.906 292.396 298.861 288.646 297.241C284.939 295.622 280.741 294.195 276.054 292.959L260.585 288.74C250.102 285.885 241.793 281.688 235.656 276.148C229.562 270.608 226.516 263.278 226.516 254.159C226.516 246.616 228.561 240.033 232.652 234.408C236.743 228.783 242.283 224.415 249.271 221.304C256.26 218.151 264.143 216.574 272.922 216.574C281.786 216.574 289.605 218.129 296.381 221.24C303.199 224.351 308.568 228.634 312.489 234.088C316.409 239.5 318.455 245.722 318.625 252.753H299.577Z" fill="#4D3E35"/>
</g>
<defs>
<filter id="filter0_d_17_66" x="76.8303" y="77.0802" width="434.07" height="427.07" filterUnits="userSpaceOnUse" color-interpolation-filters="sRGB">
<feFlood flood-opacity="0" result="BackgroundImageFix"/>
<feColorMatrix in="SourceAlpha" type="matrix" values="0 0 0 0 0 0 0 0 0 0 0 0 0 0 0 0 0 0 127 0" result="hardAlpha"/>
<feOffset dx="14" dy="7"/>
<feComposite in2="hardAlpha" operator="out"/>
<feColorMatrix type="matrix" values="0 0 0 0 0.3 0 0 0 0 0.244118 0 0 0 0 0.205882 0 0 0 1 0"/>
<feBlend mode="normal" in2="BackgroundImageFix" result="effect1_dropShadow_17_66"/>
<feBlend mode="normal" in="SourceGraphic" in2="effect1_dropShadow_17_66" result="shape"/>
</filter>
<filter id="filter1_d_17_66" x="223" y="202" width="105.415" height="171.636" filterUnits="userSpaceOnUse" color-interpolation-filters="sRGB">
<feFlood flood-opacity="0" result="BackgroundImageFix"/>
<feColorMatrix in="SourceAlpha" type="matrix" values="0 0 0 0 0 0 0 0 0 0 0 0 0 0 0 0 0 0 127 0" result="hardAlpha"/>
<feOffset dx="4" dy="4"/>
<feGaussianBlur stdDeviation="2"/>
<feComposite in2="hardAlpha" operator="out"/>
<feColorMatrix type="matrix" values="0 0 0 0 0.298039 0 0 0 0 0.243137 0 0 0 0 0.203922 0 0 0 0.3 0"/>
<feBlend mode="normal" in2="BackgroundImageFix" result="effect1_dropShadow_17_66"/>
<feBlend mode="normal" in="SourceGraphic" in2="effect1_dropShadow_17_66" result="shape"/>
</filter>
</defs>
</svg>
