<svg width="583" height="583" viewBox="0 0 583 583" fill="none" xmlns="http://www.w3.org/2000/svg">
<path fill-rule="evenodd" clip-rule="evenodd" d="M13 5.5C8.85786 5.5 5.5 8.85786 5.5 13V36.2084C5.5 37.5891 4.38071 38.7084 3 38.7084C1.61929 38.7084 0.5 37.5891 0.5 36.2084V13C0.5 6.09643 6.09644 0.5 13 0.5H36.2083C37.589 0.5 38.7083 1.61929 38.7083 3C38.7083 4.38071 37.589 5.5 36.2083 5.5H13ZM80.125 3C80.125 1.61929 81.2443 0.5 82.625 0.5H129.042C130.422 0.5 131.542 1.61929 131.542 3C131.542 4.38071 130.422 5.5 129.042 5.5H82.625C81.2443 5.5 80.125 4.38071 80.125 3ZM172.958 3C172.958 1.61929 174.078 0.5 175.458 0.5H221.875C223.256 0.5 224.375 1.61929 224.375 3C224.375 4.38071 223.256 5.5 221.875 5.5H175.458C174.078 5.5 172.958 4.38071 172.958 3ZM265.792 3C265.792 1.61929 266.911 0.5 268.292 0.5H314.708C316.089 0.5 317.208 1.61929 317.208 3C317.208 4.38071 316.089 5.5 314.708 5.5H268.292C266.911 5.5 265.792 4.38071 265.792 3ZM358.625 3C358.625 1.61929 359.744 0.5 361.125 0.5H407.542C408.922 0.5 410.042 1.61929 410.042 3C410.042 4.38071 408.922 5.5 407.542 5.5H361.125C359.744 5.5 358.625 4.38071 358.625 3ZM451.458 3C451.458 1.61929 452.578 0.5 453.958 0.5H500.375C501.756 0.5 502.875 1.61929 502.875 3C502.875 4.38071 501.756 5.5 500.375 5.5H453.958C452.578 5.5 451.458 4.38071 451.458 3ZM544.292 3C544.292 1.61929 545.411 0.5 546.792 0.5H570C576.904 0.5 582.5 6.09644 582.5 13V36.2083C582.5 37.589 581.381 38.7083 580 38.7083C578.619 38.7083 577.5 37.589 577.5 36.2083V13C577.5 8.85786 574.142 5.5 570 5.5H546.792C545.411 5.5 544.292 4.38071 544.292 3ZM580 80.125C581.381 80.125 582.5 81.2443 582.5 82.625V129.042C582.5 130.422 581.381 131.542 580 131.542C578.619 131.542 577.5 130.422 577.5 129.042V82.625C577.5 81.2443 578.619 80.125 580 80.125ZM3 80.125C4.38071 80.125 5.5 81.2443 5.5 82.625V129.042C5.5 130.422 4.38071 131.542 3 131.542C1.61929 131.542 0.5 130.422 0.5 129.042V82.625C0.5 81.2443 1.61929 80.125 3 80.125ZM3 172.958C4.38071 172.958 5.5 174.078 5.5 175.458V221.875C5.5 223.256 4.38071 224.375 3 224.375C1.61929 224.375 0.5 223.256 0.5 221.875V175.458C0.5 174.078 1.61929 172.958 3 172.958ZM580 172.958C581.381 172.958 582.5 174.078 582.5 175.458V221.875C582.5 223.256 581.381 224.375 580 224.375C578.619 224.375 577.5 223.256 577.5 221.875V175.458C577.5 174.078 578.619 172.958 580 172.958ZM3 265.792C4.38071 265.792 5.5 266.911 5.5 268.292V314.708C5.5 316.089 4.38071 317.208 3 317.208C1.61929 317.208 0.5 316.089 0.5 314.708V268.292C0.5 266.911 1.61929 265.792 3 265.792ZM580 265.792C581.381 265.792 582.5 266.911 582.5 268.292V314.708C582.5 316.089 581.381 317.208 580 317.208C578.619 317.208 577.5 316.089 577.5 314.708V268.292C577.5 266.911 578.619 265.792 580 265.792ZM3 358.625C4.38071 358.625 5.5 359.744 5.5 361.125V407.542C5.5 408.922 4.38071 410.042 3 410.042C1.61929 410.042 0.5 408.922 0.5 407.542V361.125C0.5 359.744 1.61929 358.625 3 358.625ZM580 358.625C581.381 358.625 582.5 359.744 582.5 361.125V407.542C582.5 408.922 581.381 410.042 580 410.042C578.619 410.042 577.5 408.922 577.5 407.542V361.125C577.5 359.744 578.619 358.625 580 358.625ZM3 451.458C4.38071 451.458 5.5 452.578 5.5 453.958V500.375C5.5 501.756 4.38071 502.875 3 502.875C1.61929 502.875 0.5 501.756 0.5 500.375V453.958C0.5 452.578 1.61929 451.458 3 451.458ZM580 451.458C581.381 451.458 582.5 452.578 582.5 453.958V500.375C582.5 501.756 581.381 502.875 580 502.875C578.619 502.875 577.5 501.756 577.5 500.375V453.958C577.5 452.578 578.619 451.458 580 451.458ZM580 544.292C581.381 544.292 582.5 545.411 582.5 546.792V570C582.5 576.904 576.904 582.5 570 582.5H546.792C545.411 582.5 544.292 581.381 544.292 580C544.292 578.619 545.411 577.5 546.792 577.5H570C574.142 577.5 577.5 574.142 577.5 570V546.792C577.5 545.411 578.619 544.292 580 544.292ZM3 544.292C4.38071 544.292 5.5 545.411 5.5 546.792V570C5.5 574.142 8.85786 577.5 13 577.5H36.2084C37.5891 577.5 38.7084 578.619 38.7084 580C38.7084 581.381 37.5891 582.5 36.2084 582.5H13C6.09643 582.5 0.5 576.904 0.5 570V546.792C0.5 545.411 1.61929 544.292 3 544.292ZM80.125 580C80.125 578.619 81.2443 577.5 82.625 577.5H129.042C130.422 577.5 131.542 578.619 131.542 580C131.542 581.381 130.422 582.5 129.042 582.5H82.625C81.2443 582.5 80.125 581.381 80.125 580ZM172.958 580C172.958 578.619 174.078 577.5 175.458 577.5H221.875C223.256 577.5 224.375 578.619 224.375 580C224.375 581.381 223.256 582.5 221.875 582.5H175.458C174.078 582.5 172.958 581.381 172.958 580ZM265.792 580C265.792 578.619 266.911 577.5 268.292 577.5H314.708C316.089 577.5 317.208 578.619 317.208 580C317.208 581.381 316.089 582.5 314.708 582.5H268.292C266.911 582.5 265.792 581.381 265.792 580ZM358.625 580C358.625 578.619 359.744 577.5 361.125 577.5H407.542C408.922 577.5 410.042 578.619 410.042 580C410.042 581.381 408.922 582.5 407.542 582.5H361.125C359.744 582.5 358.625 581.381 358.625 580ZM451.458 580C451.458 578.619 452.578 577.5 453.958 577.5H500.375C501.756 577.5 502.875 578.619 502.875 580C502.875 581.381 501.756 582.5 500.375 582.5H453.958C452.578 582.5 451.458 581.381 451.458 580ZM291.5 150.5C292.17 150.5 292.811 150.769 293.281 151.246L329.115 187.635C330.083 188.619 330.071 190.201 329.087 191.17C328.104 192.139 326.521 192.127 325.552 191.143L294 159.102V159.189V159.297V159.406V159.516V159.626V159.738V159.85V159.963V160.077V160.191V160.307V160.423V160.54V160.658V160.776V160.896V161.016V161.137V161.258V161.381V161.504V161.628V161.753V161.878V162.005V162.132V162.26V162.388V162.517V162.647V162.778V162.91V163.042V163.175V163.309V163.443V163.578V163.714V163.851V163.988V164.126V164.265V164.404V164.544V164.685V164.827V164.969V165.112V165.255V165.4V165.545V165.69V165.837V165.984V166.131V166.28V166.429V166.578V166.728V166.879V167.031V167.183V167.336V167.49V167.644V167.799V167.954V168.11V168.267V168.424V168.582V168.741V168.9V169.06V169.22V169.381V169.543V169.705V169.868V170.031V170.195V170.36V170.525V170.691V170.857V171.024V171.192V171.36V171.528V171.698V171.867V172.038V172.208V172.38V172.552V172.724V172.898V173.071V173.245V173.42V173.595V173.771V173.947V174.124V174.301V174.479V174.658V174.836V175.016V175.196V175.376V175.557V175.738V175.92V176.103V176.285V176.469V176.653V176.837V177.022V177.207V177.393V177.579V177.766V177.953V178.14V178.328V178.517V178.706V178.895V179.085V179.275V179.466V179.657V179.849V180.041V180.233V180.426V180.619V180.813V181.007V181.201V181.396V181.592V181.787V181.984V182.18V182.377V182.574V182.772V182.97V183.169V183.367V183.567V183.766V183.966V184.166V184.367V184.568V184.77V184.971V185.173V185.376V185.579V185.782V185.985V186.189V186.393V186.598V186.803V187.008V187.213V187.419V187.625V187.832V188.038V188.245V188.453V188.66V188.868V189.076V189.285V189.494V189.703V189.912V190.122V190.332V190.542V190.753V190.963V191.174V191.386V191.597V191.809V192.021V192.233V192.446V192.659V192.872V193.085V193.298V193.512V193.726V193.94V194.155V194.369V194.584V194.799V195.015V195.23V195.446V195.662V195.878V196.094V196.311V196.527V196.744V196.961V197.179V197.396V197.614V197.832V198.049V198.268V198.486V198.704V198.923V199.142V199.361V199.58V199.799V200.018V200.238V200.457V200.677V200.897V201.117V201.337V201.558V201.778V201.999V202.219V202.44V202.661V202.882V203.103V203.324V203.545V203.767V203.988V204.21V204.431V204.653V204.875V205.097V205.319V205.541V205.763V205.985V206.207V206.429V206.651V206.874V207.096V207.319V207.541V207.764V207.986V208.209V208.432V208.654V208.877V209.1V209.322V209.545V209.768V209.991V210.213V210.436V210.659V210.882V211.105V211.327V211.55V211.773V211.996V212.218V212.441V212.664V212.886V213.109V213.332V213.554V213.777V213.999V214.221V214.444V214.666V214.888V215.111V215.333V215.555V215.777V215.999V216.221V216.443V216.664V216.886V217.107V217.329V217.55V217.772V217.993V218.214V218.435V218.656V218.876V219.097V219.318V219.538V219.758V219.979V220.199V220.419V220.638V220.858V221.078V221.297V221.516V221.735V221.954V222.173V222.392V222.61V222.828V223.047V223.265V223.482V223.7V223.918V224.135V224.352V224.569V224.786V225.002V225.219V225.435V225.651V225.866V226.082V226.297V226.512V226.727V226.942V227.156V227.371V227.585V227.798V228.012V228.225V228.438V228.651V228.864V229.076V229.288V229.5V229.712V229.923V230.134V230.345V230.556V230.766V230.976V231.185V231.395V231.604V231.813V232.021V232.23V232.438V232.645V232.853V233.06V233.267V233.473V233.679V233.885V234.091V234.296V234.501V234.705V234.91V235.113V235.317V235.52V235.723V235.926V236.128V236.33V236.531V236.732V236.933V237.133V237.333C294 238.714 292.881 239.833 291.5 239.833C290.119 239.833 289 238.714 289 237.333V237.133V236.933V236.732V236.531V236.33V236.128V235.926V235.723V235.52V235.317V235.113V234.91V234.705V234.501V234.296V234.091V233.885V233.679V233.473V233.267V233.06V232.853V232.645V232.438V232.23V232.021V231.813V231.604V231.395V231.185V230.976V230.766V230.556V230.345V230.134V229.923V229.712V229.5V229.288V229.076V228.864V228.651V228.438V228.225V228.012V227.798V227.585V227.371V227.156V226.942V226.727V226.512V226.297V226.082V225.866V225.651V225.435V225.219V225.002V224.786V224.569V224.352V224.135V223.918V223.7V223.482V223.265V223.047V222.828V222.61V222.392V222.173V221.954V221.735V221.516V221.297V221.078V220.858V220.638V220.419V220.199V219.979V219.758V219.538V219.318V219.097V218.876V218.656V218.435V218.214V217.993V217.772V217.55V217.329V217.107V216.886V216.664V216.443V216.221V215.999V215.777V215.555V215.333V215.111V214.888V214.666V214.444V214.221V213.999V213.777V213.554V213.332V213.109V212.886V212.664V212.441V212.218V211.996V211.773V211.55V211.327V211.105V210.882V210.659V210.436V210.213V209.991V209.768V209.545V209.322V209.1V208.877V208.654V208.432V208.209V207.986V207.764V207.541V207.319V207.096V206.874V206.651V206.429V206.207V205.985V205.763V205.541V205.319V205.097V204.875V204.653V204.431V204.21V203.988V203.767V203.545V203.324V203.103V202.882V202.661V202.44V202.219V201.999V201.778V201.558V201.337V201.117V200.897V200.677V200.457V200.238V200.018V199.799V199.58V199.361V199.142V198.923V198.704V198.486V198.268V198.049V197.832V197.614V197.396V197.179V196.961V196.744V196.527V196.311V196.094V195.878V195.662V195.446V195.23V195.015V194.799V194.584V194.369V194.155V193.94V193.726V193.512V193.298V193.085V192.872V192.659V192.446V192.233V192.021V191.809V191.597V191.386V191.174V190.963V190.753V190.542V190.332V190.122V189.912V189.703V189.494V189.285V189.076V188.868V188.66V188.453V188.245V188.038V187.832V187.625V187.419V187.213V187.008V186.803V186.598V186.393V186.189V185.985V185.782V185.579V185.376V185.173V184.971V184.77V184.568V184.367V184.166V183.966V183.766V183.567V183.367V183.169V182.97V182.772V182.574V182.377V182.18V181.984V181.787V181.592V181.396V181.201V181.007V180.813V180.619V180.426V180.233V180.041V179.849V179.657V179.466V179.275V179.085V178.895V178.706V178.517V178.328V178.14V177.953V177.766V177.579V177.393V177.207V177.022V176.837V176.653V176.469V176.285V176.103V175.92V175.738V175.557V175.376V175.196V175.016V174.836V174.658V174.479V174.301V174.124V173.947V173.771V173.595V173.42V173.245V173.071V172.898V172.724V172.552V172.38V172.208V172.038V171.867V171.698V171.528V171.36V171.192V171.024V170.857V170.691V170.525V170.36V170.195V170.031V169.868V169.705V169.543V169.381V169.22V169.06V168.9V168.741V168.582V168.424V168.267V168.11V167.954V167.799V167.644V167.49V167.336V167.183V167.031V166.879V166.728V166.578V166.429V166.28V166.131V165.984V165.837V165.69V165.545V165.4V165.255V165.112V164.969V164.827V164.685V164.544V164.404V164.265V164.126V163.988V163.851V163.714V163.578V163.443V163.309V163.175V163.042V162.91V162.778V162.647V162.517V162.388V162.26V162.132V162.005V161.878V161.753V161.628V161.504V161.381V161.258V161.137V161.016V160.896V160.776V160.658V160.54V160.423V160.307V160.191V160.077V159.963V159.85V159.738V159.626V159.516V159.406V159.297V159.189V159.102L257.448 191.143C256.479 192.127 254.896 192.139 253.913 191.17C252.929 190.201 252.917 188.619 253.885 187.635L289.719 151.246C290.189 150.769 290.83 150.5 291.5 150.5ZM227 234.833C228.381 234.833 229.5 235.953 229.5 237.333V266.444C229.5 269.654 230.756 272.725 232.979 274.983C235.202 277.239 238.207 278.5 241.333 278.5H341.667C344.793 278.5 347.798 277.239 350.021 274.983C352.244 272.725 353.5 269.654 353.5 266.444V237.333C353.5 235.953 354.619 234.833 356 234.833C357.381 234.833 358.5 235.953 358.5 237.333V266.444C358.5 270.956 356.736 275.29 353.583 278.491C350.429 281.694 346.144 283.5 341.667 283.5H241.333C236.856 283.5 232.571 281.694 229.417 278.491C226.264 275.29 224.5 270.956 224.5 266.444V237.333C224.5 235.953 225.619 234.833 227 234.833ZM175.752 382.435H178.939C178.809 381.463 178.53 380.599 178.104 379.844C177.684 379.082 177.147 378.44 176.493 377.918C175.84 377.389 175.096 376.989 174.26 376.716C173.425 376.443 172.522 376.307 171.55 376.307C170.027 376.307 168.664 376.662 167.459 377.372C166.255 378.082 165.303 379.108 164.604 380.449C163.905 381.784 163.556 383.392 163.556 385.273C163.556 387.148 163.902 388.756 164.596 390.097C165.289 391.438 166.238 392.463 167.442 393.173C168.647 393.884 170.016 394.239 171.55 394.239C172.59 394.239 173.536 394.085 174.388 393.778C175.24 393.466 175.985 393.034 176.621 392.483C177.257 391.926 177.772 391.284 178.164 390.557C178.561 389.83 178.82 389.051 178.939 388.222L175.752 388.205C175.655 388.716 175.479 389.17 175.223 389.568C174.973 389.966 174.664 390.301 174.294 390.574C173.931 390.847 173.519 391.054 173.059 391.196C172.604 391.332 172.115 391.401 171.593 391.401C170.65 391.401 169.811 391.17 169.078 390.71C168.351 390.244 167.777 389.557 167.357 388.648C166.942 387.733 166.735 386.608 166.735 385.273C166.735 383.96 166.942 382.849 167.357 381.94C167.772 381.026 168.346 380.332 169.078 379.861C169.811 379.384 170.652 379.145 171.601 379.145C172.135 379.145 172.632 379.219 173.093 379.366C173.559 379.509 173.973 379.722 174.337 380.006C174.701 380.29 175.005 380.636 175.249 381.045C175.493 381.449 175.661 381.912 175.752 382.435ZM184.784 394V376.545H181.699V394H184.784ZM187.956 380.909V394H191.042V380.909H187.956ZM188.246 378.565C188.598 378.889 189.019 379.051 189.507 379.051C190.002 379.051 190.422 378.889 190.769 378.565C191.121 378.236 191.297 377.841 191.297 377.381C191.297 376.915 191.121 376.52 190.769 376.196C190.422 375.866 190.002 375.702 189.507 375.702C189.019 375.702 188.598 375.866 188.246 376.196C187.894 376.52 187.718 376.915 187.718 377.381C187.718 377.841 187.894 378.236 188.246 378.565ZM202.95 391.938V398.909H206.044V380.909H203.01V383.074H202.822C202.663 382.756 202.439 382.418 202.149 382.06C201.859 381.696 201.467 381.386 200.973 381.131C200.478 380.869 199.848 380.739 199.081 380.739C198.075 380.739 197.163 380.997 196.345 381.514C195.527 382.026 194.876 382.784 194.393 383.79C193.916 384.79 193.677 386.017 193.677 387.472C193.677 388.909 193.913 390.131 194.385 391.136C194.856 392.142 195.498 392.909 196.311 393.438C197.123 393.966 198.044 394.23 199.072 394.23C199.822 394.23 200.444 394.105 200.939 393.855C201.433 393.605 201.831 393.304 202.132 392.952C202.433 392.594 202.663 392.256 202.822 391.938H202.95ZM201.603 391.17C201.143 391.523 200.586 391.699 199.933 391.699C199.257 391.699 198.686 391.517 198.22 391.153C197.76 390.784 197.41 390.281 197.172 389.645C196.939 389.003 196.822 388.273 196.822 387.455C196.822 386.642 196.939 385.92 197.172 385.29C197.404 384.659 197.751 384.165 198.211 383.807C198.672 383.449 199.245 383.27 199.933 383.27C200.598 383.27 201.157 383.443 201.612 383.79C202.072 384.136 202.419 384.622 202.652 385.247C202.89 385.872 203.01 386.608 203.01 387.455C203.01 388.301 202.89 389.043 202.652 389.679C202.413 390.315 202.064 390.812 201.603 391.17ZM217.558 380.909V388.494C217.558 389.159 217.419 389.713 217.14 390.156C216.868 390.594 216.518 390.923 216.092 391.145C215.666 391.366 215.225 391.477 214.771 391.477C214.032 391.477 213.436 391.233 212.981 390.744C212.527 390.256 212.299 389.597 212.299 388.767V380.909H209.214V389.244C209.214 390.29 209.399 391.182 209.768 391.92C210.137 392.653 210.649 393.213 211.302 393.599C211.961 393.98 212.72 394.17 213.578 394.17C214.561 394.17 215.387 393.938 216.058 393.472C216.734 393.006 217.22 392.406 217.515 391.673H217.652V394H220.643V380.909H217.558ZM226.211 393.438C227.165 393.983 228.299 394.256 229.611 394.256C230.628 394.256 231.532 394.102 232.321 393.795C233.111 393.483 233.759 393.045 234.265 392.483C234.776 391.915 235.123 391.25 235.304 390.489L232.424 390.165C232.287 390.534 232.086 390.844 231.819 391.094C231.551 391.344 231.236 391.534 230.873 391.665C230.509 391.79 230.103 391.852 229.654 391.852C228.983 391.852 228.398 391.71 227.898 391.426C227.398 391.136 227.009 390.722 226.73 390.182C226.461 389.655 226.322 389.027 226.313 388.298H235.432V387.352C235.432 386.205 235.273 385.216 234.955 384.386C234.637 383.551 234.199 382.864 233.642 382.324C233.091 381.784 232.455 381.386 231.733 381.131C231.017 380.869 230.256 380.739 229.449 380.739C228.199 380.739 227.111 381.026 226.185 381.599C225.259 382.168 224.537 382.963 224.02 383.986C223.509 385.003 223.253 386.185 223.253 387.531C223.253 388.901 223.509 390.091 224.02 391.102C224.532 392.108 225.262 392.886 226.211 393.438ZM226.319 386.219C226.349 385.706 226.48 385.231 226.713 384.795C226.98 384.301 227.353 383.903 227.83 383.602C228.307 383.295 228.861 383.142 229.492 383.142C230.083 383.142 230.6 383.276 231.043 383.543C231.492 383.81 231.841 384.176 232.091 384.642C232.341 385.102 232.469 385.628 232.475 386.219H226.319ZM243.995 380.909V398.909H247.081V391.938H247.208C247.373 392.256 247.603 392.594 247.899 392.952C248.2 393.304 248.598 393.605 249.092 393.855C249.586 394.105 250.208 394.23 250.958 394.23C251.987 394.23 252.907 393.966 253.72 393.438C254.532 392.909 255.174 392.142 255.646 391.136C256.118 390.131 256.353 388.909 256.353 387.472C256.353 386.017 256.112 384.79 255.629 383.79C255.152 382.784 254.504 382.026 253.686 381.514C252.873 380.997 251.961 380.739 250.95 380.739C250.183 380.739 249.552 380.869 249.058 381.131C248.564 381.386 248.172 381.696 247.882 382.06C247.592 382.418 247.368 382.756 247.208 383.074H247.029V380.909H243.995ZM247.379 389.679C247.14 389.043 247.021 388.301 247.021 387.455C247.021 386.608 247.137 385.872 247.37 385.247C247.609 384.622 247.958 384.136 248.419 383.79C248.879 383.443 249.439 383.27 250.098 383.27C250.785 383.27 251.359 383.449 251.819 383.807C252.279 384.165 252.626 384.659 252.859 385.29C253.092 385.92 253.208 386.642 253.208 387.455C253.208 388.273 253.089 389.003 252.85 389.645C252.618 390.281 252.271 390.784 251.811 391.153C251.35 391.517 250.779 391.699 250.098 391.699C249.444 391.699 248.887 391.523 248.427 391.17C247.973 390.812 247.623 390.315 247.379 389.679ZM260.521 393.821C261.186 394.116 261.933 394.264 262.762 394.264C263.444 394.264 264.038 394.17 264.544 393.983C265.055 393.79 265.478 393.537 265.814 393.224C266.154 392.906 266.419 392.565 266.606 392.202H266.708V394H269.674V385.239C269.674 384.369 269.515 383.645 269.197 383.065C268.885 382.486 268.47 382.028 267.953 381.693C267.436 381.352 266.865 381.108 266.24 380.96C265.615 380.812 264.987 380.739 264.356 380.739C263.441 380.739 262.606 380.875 261.85 381.148C261.095 381.415 260.456 381.818 259.933 382.358C259.41 382.892 259.035 383.557 258.808 384.352L261.689 384.761C261.842 384.312 262.137 383.923 262.575 383.594C263.018 383.264 263.618 383.099 264.373 383.099C265.089 383.099 265.637 383.276 266.018 383.628C266.399 383.98 266.589 384.477 266.589 385.119V385.17C266.589 385.466 266.478 385.685 266.257 385.827C266.041 385.963 265.694 386.065 265.217 386.134C264.74 386.196 264.118 386.267 263.35 386.347C262.714 386.415 262.098 386.526 261.501 386.679C260.91 386.827 260.379 387.045 259.907 387.335C259.436 387.625 259.064 388.011 258.791 388.494C258.518 388.977 258.382 389.588 258.382 390.327C258.382 391.185 258.572 391.906 258.953 392.491C259.339 393.077 259.862 393.52 260.521 393.821ZM265.174 391.631C264.72 391.875 264.183 391.997 263.564 391.997C262.922 391.997 262.393 391.852 261.978 391.562C261.564 391.273 261.356 390.844 261.356 390.276C261.356 389.878 261.461 389.554 261.672 389.304C261.882 389.048 262.169 388.849 262.532 388.707C262.896 388.565 263.308 388.463 263.768 388.401C263.973 388.372 264.214 388.338 264.493 388.298C264.771 388.259 265.052 388.213 265.336 388.162C265.62 388.111 265.876 388.051 266.103 387.983C266.336 387.915 266.501 387.841 266.598 387.761V389.304C266.598 389.787 266.473 390.233 266.223 390.642C265.978 391.051 265.629 391.381 265.174 391.631ZM272.777 380.909V394H275.862V386.304C275.862 385.747 275.99 385.256 276.245 384.83C276.501 384.403 276.85 384.071 277.294 383.832C277.743 383.588 278.248 383.466 278.811 383.466C279.072 383.466 279.342 383.486 279.62 383.526C279.904 383.56 280.112 383.599 280.243 383.645V380.807C280.1 380.778 279.922 380.759 279.706 380.747C279.572 380.736 279.447 380.729 279.33 380.725C279.262 380.723 279.197 380.722 279.135 380.722C278.385 380.722 277.717 380.929 277.132 381.344C276.552 381.753 276.143 382.335 275.904 383.091H275.768V380.909H272.777ZM283.583 393.821C284.248 394.116 284.995 394.264 285.825 394.264C286.507 394.264 287.1 394.17 287.606 393.983C288.118 393.79 288.541 393.537 288.876 393.224C289.217 392.906 289.481 392.565 289.669 392.202H289.771V394H292.737V385.239C292.737 384.369 292.578 383.645 292.26 383.065C291.947 382.486 291.532 382.028 291.015 381.693C290.498 381.352 289.927 381.108 289.302 380.96C288.677 380.812 288.049 380.739 287.419 380.739C286.504 380.739 285.669 380.875 284.913 381.148C284.157 381.415 283.518 381.818 282.995 382.358C282.473 382.892 282.098 383.557 281.87 384.352L284.751 384.761C284.904 384.312 285.2 383.923 285.637 383.594C286.081 383.264 286.68 383.099 287.436 383.099C288.152 383.099 288.7 383.276 289.081 383.628C289.461 383.98 289.652 384.477 289.652 385.119V385.17C289.652 385.466 289.541 385.685 289.319 385.827C289.103 385.963 288.757 386.065 288.279 386.134C287.802 386.196 287.18 386.267 286.413 386.347C285.777 386.415 285.16 386.526 284.564 386.679C283.973 386.827 283.441 387.045 282.97 387.335C282.498 387.625 282.126 388.011 281.853 388.494C281.581 388.977 281.444 389.588 281.444 390.327C281.444 391.185 281.635 391.906 282.015 392.491C282.402 393.077 282.924 393.52 283.583 393.821ZM288.237 391.631C287.782 391.875 287.245 391.997 286.626 391.997C285.984 391.997 285.456 391.852 285.041 391.562C284.626 391.273 284.419 390.844 284.419 390.276C284.419 389.878 284.524 389.554 284.734 389.304C284.944 389.048 285.231 388.849 285.595 388.707C285.958 388.565 286.37 388.463 286.831 388.401C287.035 388.372 287.277 388.338 287.555 388.298C287.833 388.259 288.115 388.213 288.399 388.162C288.683 388.111 288.939 388.051 289.166 387.983C289.399 387.915 289.564 387.841 289.66 387.761V389.304C289.66 389.787 289.535 390.233 289.285 390.642C289.041 391.051 288.691 391.381 288.237 391.631ZM309.326 384.676L312.139 384.369C311.929 383.256 311.38 382.372 310.494 381.719C309.613 381.065 308.406 380.739 306.872 380.739C305.826 380.739 304.903 380.903 304.102 381.233C303.306 381.557 302.684 382.017 302.235 382.614C301.792 383.205 301.574 383.903 301.579 384.71C301.574 385.665 301.872 386.455 302.474 387.08C303.076 387.699 304.005 388.139 305.261 388.401L307.494 388.869C308.096 389 308.539 389.188 308.824 389.432C309.113 389.676 309.258 389.986 309.258 390.361C309.258 390.804 309.034 391.176 308.585 391.477C308.142 391.778 307.554 391.929 306.821 391.929C306.11 391.929 305.534 391.778 305.091 391.477C304.647 391.176 304.358 390.73 304.221 390.139L301.213 390.429C301.4 391.634 301.983 392.574 302.96 393.25C303.937 393.92 305.227 394.256 306.829 394.256C307.92 394.256 308.886 394.08 309.727 393.727C310.568 393.375 311.224 392.886 311.696 392.261C312.173 391.631 312.414 390.903 312.42 390.08C312.414 389.142 312.108 388.384 311.5 387.804C310.897 387.224 309.977 386.801 308.738 386.534L306.505 386.057C305.841 385.903 305.363 385.707 305.074 385.469C304.789 385.23 304.65 384.92 304.656 384.54C304.65 384.097 304.863 383.736 305.295 383.457C305.733 383.179 306.272 383.04 306.914 383.04C307.392 383.04 307.795 383.116 308.125 383.27C308.454 383.423 308.716 383.625 308.909 383.875C309.108 384.125 309.247 384.392 309.326 384.676ZM317.359 393.438C318.314 393.983 319.447 394.256 320.76 394.256C321.777 394.256 322.68 394.102 323.47 393.795C324.26 393.483 324.907 393.045 325.413 392.483C325.924 391.915 326.271 391.25 326.453 390.489L323.572 390.165C323.436 390.534 323.234 390.844 322.967 391.094C322.7 391.344 322.385 391.534 322.021 391.665C321.657 391.79 321.251 391.852 320.802 391.852C320.132 391.852 319.547 391.71 319.047 391.426C318.547 391.136 318.157 390.722 317.879 390.182C317.61 389.655 317.471 389.027 317.462 388.298H326.581V387.352C326.581 386.205 326.422 385.216 326.103 384.386C325.785 383.551 325.348 382.864 324.791 382.324C324.24 381.784 323.603 381.386 322.882 381.131C322.166 380.869 321.404 380.739 320.598 380.739C319.348 380.739 318.26 381.026 317.333 381.599C316.407 382.168 315.686 382.963 315.169 383.986C314.657 385.003 314.402 386.185 314.402 387.531C314.402 388.901 314.657 390.091 315.169 391.102C315.68 392.108 316.41 392.886 317.359 393.438ZM317.468 386.219C317.497 385.706 317.629 385.231 317.862 384.795C318.129 384.301 318.501 383.903 318.978 383.602C319.456 383.295 320.01 383.142 320.64 383.142C321.231 383.142 321.748 383.276 322.191 383.543C322.64 383.81 322.99 384.176 323.24 384.642C323.49 385.102 323.618 385.628 323.623 386.219H317.468ZM332.276 394V376.545H329.191V394H332.276ZM337.843 393.438C338.798 393.983 339.931 394.256 341.244 394.256C342.261 394.256 343.164 394.102 343.954 393.795C344.744 393.483 345.392 393.045 345.897 392.483C346.409 391.915 346.755 391.25 346.937 390.489L344.056 390.165C343.92 390.534 343.718 390.844 343.451 391.094C343.184 391.344 342.869 391.534 342.505 391.665C342.142 391.79 341.735 391.852 341.287 391.852C340.616 391.852 340.031 391.71 339.531 391.426C339.031 391.136 338.642 390.722 338.363 390.182C338.094 389.655 337.955 389.027 337.946 388.298H347.065V387.352C347.065 386.205 346.906 385.216 346.588 384.386C346.27 383.551 345.832 382.864 345.275 382.324C344.724 381.784 344.088 381.386 343.366 381.131C342.65 380.869 341.889 380.739 341.082 380.739C339.832 380.739 338.744 381.026 337.818 381.599C336.892 382.168 336.17 382.963 335.653 383.986C335.142 385.003 334.886 386.185 334.886 387.531C334.886 388.901 335.142 390.091 335.653 391.102C336.164 392.108 336.895 392.886 337.843 393.438ZM337.952 386.219C337.982 385.706 338.113 385.231 338.346 384.795C338.613 384.301 338.985 383.903 339.463 383.602C339.94 383.295 340.494 383.142 341.125 383.142C341.716 383.142 342.233 383.276 342.676 383.543C343.125 383.81 343.474 384.176 343.724 384.642C343.974 385.102 344.102 385.628 344.108 386.219H337.952ZM352.019 393.395C352.956 393.969 354.078 394.256 355.385 394.256C356.482 394.256 357.436 394.057 358.249 393.659C359.061 393.256 359.703 392.699 360.175 391.989C360.647 391.273 360.919 390.452 360.993 389.526H358.044C357.953 389.997 357.786 390.398 357.542 390.727C357.297 391.057 356.993 391.31 356.63 391.486C356.272 391.656 355.865 391.741 355.411 391.741C354.769 391.741 354.209 391.571 353.732 391.23C353.26 390.884 352.894 390.392 352.632 389.756C352.371 389.114 352.24 388.347 352.24 387.455C352.24 386.574 352.371 385.818 352.632 385.188C352.9 384.557 353.272 384.074 353.749 383.739C354.226 383.398 354.78 383.227 355.411 383.227C356.155 383.227 356.749 383.44 357.192 383.866C357.641 384.287 357.925 384.812 358.044 385.443H360.993C360.925 384.5 360.647 383.676 360.158 382.972C359.669 382.261 359.013 381.713 358.189 381.327C357.371 380.935 356.431 380.739 355.368 380.739C354.09 380.739 352.982 381.026 352.044 381.599C351.113 382.168 350.391 382.963 349.88 383.986C349.368 385.003 349.113 386.176 349.113 387.506C349.113 388.83 349.363 390 349.863 391.017C350.368 392.028 351.087 392.821 352.019 393.395ZM363.527 380.909V394H366.612V380.909H363.527ZM363.816 378.565C364.169 378.889 364.589 379.051 365.078 379.051C365.572 379.051 365.993 378.889 366.339 378.565C366.691 378.236 366.868 377.841 366.868 377.381C366.868 376.915 366.691 376.52 366.339 376.196C365.993 375.866 365.572 375.702 365.078 375.702C364.589 375.702 364.169 375.866 363.816 376.196C363.464 376.52 363.288 376.915 363.288 377.381C363.288 377.841 363.464 378.236 363.816 378.565ZM372.171 393.412C373.108 393.974 374.216 394.256 375.495 394.256C376.773 394.256 377.881 393.974 378.819 393.412C379.756 392.849 380.48 392.062 380.992 391.051C381.509 390.04 381.767 388.858 381.767 387.506C381.767 386.153 381.509 384.969 380.992 383.952C380.48 382.935 379.756 382.145 378.819 381.582C377.881 381.02 376.773 380.739 375.495 380.739C374.216 380.739 373.108 381.02 372.171 381.582C371.233 382.145 370.506 382.935 369.989 383.952C369.478 384.969 369.222 386.153 369.222 387.506C369.222 388.858 369.478 390.04 369.989 391.051C370.506 392.062 371.233 392.849 372.171 393.412ZM377.25 391.213C376.784 391.594 376.205 391.784 375.512 391.784C374.801 391.784 374.211 391.594 373.739 391.213C373.273 390.827 372.924 390.31 372.691 389.662C372.463 389.014 372.35 388.293 372.35 387.497C372.35 386.696 372.463 385.972 372.691 385.324C372.924 384.67 373.273 384.151 373.739 383.764C374.211 383.378 374.801 383.185 375.512 383.185C376.205 383.185 376.784 383.378 377.25 383.764C377.716 384.151 378.063 384.67 378.29 385.324C378.523 385.972 378.64 386.696 378.64 387.497C378.64 388.293 378.523 389.014 378.29 389.662C378.063 390.31 377.716 390.827 377.25 391.213ZM387.471 394V386.33C387.471 385.699 387.588 385.162 387.821 384.719C388.059 384.276 388.386 383.938 388.801 383.705C389.221 383.466 389.701 383.347 390.241 383.347C391.037 383.347 391.659 383.594 392.108 384.088C392.562 384.582 392.789 385.267 392.789 386.142V394H395.875V385.665C395.88 384.619 395.696 383.73 395.321 382.997C394.951 382.264 394.429 381.705 393.752 381.318C393.082 380.932 392.295 380.739 391.392 380.739C390.414 380.739 389.593 380.955 388.929 381.386C388.27 381.818 387.789 382.401 387.488 383.134H387.335V380.909H384.386V394H387.471ZM400.537 393.821C401.201 394.116 401.949 394.264 402.778 394.264C403.46 394.264 404.054 394.17 404.559 393.983C405.071 393.79 405.494 393.537 405.829 393.224C406.17 392.906 406.434 392.565 406.622 392.202H406.724V394H409.69V385.239C409.69 384.369 409.531 383.645 409.213 383.065C408.9 382.486 408.485 382.028 407.968 381.693C407.451 381.352 406.88 381.108 406.255 380.96C405.63 380.812 405.002 380.739 404.372 380.739C403.457 380.739 402.622 380.875 401.866 381.148C401.11 381.415 400.471 381.818 399.949 382.358C399.426 382.892 399.051 383.557 398.824 384.352L401.704 384.761C401.858 384.312 402.153 383.923 402.591 383.594C403.034 383.264 403.633 383.099 404.389 383.099C405.105 383.099 405.653 383.276 406.034 383.628C406.414 383.98 406.605 384.477 406.605 385.119V385.17C406.605 385.466 406.494 385.685 406.272 385.827C406.056 385.963 405.71 386.065 405.233 386.134C404.755 386.196 404.133 386.267 403.366 386.347C402.73 386.415 402.113 386.526 401.517 386.679C400.926 386.827 400.395 387.045 399.923 387.335C399.451 387.625 399.079 388.011 398.806 388.494C398.534 388.977 398.397 389.588 398.397 390.327C398.397 391.185 398.588 391.906 398.968 392.491C399.355 393.077 399.877 393.52 400.537 393.821ZM405.19 391.631C404.735 391.875 404.199 391.997 403.579 391.997C402.937 391.997 402.409 391.852 401.994 391.562C401.579 391.273 401.372 390.844 401.372 390.276C401.372 389.878 401.477 389.554 401.687 389.304C401.897 389.048 402.184 388.849 402.548 388.707C402.912 388.565 403.324 388.463 403.784 388.401C403.945 388.378 404.13 388.352 404.338 388.323L404.508 388.298C404.787 388.259 405.068 388.213 405.352 388.162C405.636 388.111 405.892 388.051 406.119 387.983C406.352 387.915 406.517 387.841 406.613 387.761V389.304C406.613 389.787 406.488 390.233 406.238 390.642C405.994 391.051 405.645 391.381 405.19 391.631ZM412.792 380.909V394H415.877V386.304C415.877 385.747 416.005 385.256 416.261 384.83C416.517 384.403 416.866 384.071 417.309 383.832C417.758 383.588 418.264 383.466 418.826 383.466C419.088 383.466 419.358 383.486 419.636 383.526C419.92 383.56 420.127 383.599 420.258 383.645V380.807C420.116 380.778 419.937 380.759 419.721 380.747C419.511 380.73 419.321 380.722 419.15 380.722C418.4 380.722 417.733 380.929 417.147 381.344C416.568 381.753 416.159 382.335 415.92 383.091H415.784V380.909H412.792ZM227.32 409.909V417.494C227.32 418.159 227.18 418.713 226.902 419.156C226.629 419.594 226.28 419.923 225.854 420.145C225.428 420.366 224.987 420.477 224.533 420.477C223.794 420.477 223.197 420.233 222.743 419.744C222.288 419.256 222.061 418.597 222.061 417.767V409.909H218.976V418.244C218.976 419.29 219.161 420.182 219.53 420.92C219.899 421.653 220.411 422.213 221.064 422.599C221.723 422.98 222.482 423.17 223.339 423.17C224.322 423.17 225.149 422.938 225.82 422.472C226.496 422.006 226.982 421.406 227.277 420.673H227.413V423H230.405V409.909H227.32ZM233.577 409.909V423H236.663V415.04C236.663 414.5 236.771 414.028 236.987 413.625C237.202 413.216 237.492 412.901 237.856 412.679C238.219 412.452 238.623 412.338 239.066 412.338C239.719 412.338 240.248 412.54 240.651 412.943C241.06 413.347 241.265 413.886 241.265 414.562V423H244.29V414.835C244.29 414.097 244.498 413.497 244.913 413.037C245.333 412.571 245.915 412.338 246.66 412.338C247.285 412.338 247.813 412.528 248.245 412.909C248.677 413.284 248.893 413.878 248.893 414.69V423H251.987V414.213C251.987 412.753 251.606 411.642 250.844 410.881C250.083 410.119 249.1 409.739 247.896 409.739C246.947 409.739 246.126 409.957 245.433 410.395C244.745 410.827 244.256 411.406 243.967 412.134H243.83C243.58 411.395 243.148 410.812 242.535 410.386C241.927 409.955 241.18 409.739 240.293 409.739C239.418 409.739 238.665 409.952 238.035 410.378C237.404 410.798 236.952 411.384 236.68 412.134H236.526V409.909H233.577ZM256.642 422.821C257.307 423.116 258.054 423.264 258.884 423.264C259.565 423.264 260.159 423.17 260.665 422.983C261.176 422.79 261.599 422.537 261.935 422.224C262.276 421.906 262.54 421.565 262.727 421.202H262.83V423H265.795V414.239C265.795 413.369 265.636 412.645 265.318 412.065C265.006 411.486 264.591 411.028 264.074 410.693C263.557 410.352 262.986 410.108 262.361 409.96C261.736 409.812 261.108 409.739 260.477 409.739C259.562 409.739 258.727 409.875 257.972 410.148C257.216 410.415 256.577 410.818 256.054 411.358C255.531 411.892 255.156 412.557 254.929 413.352L257.81 413.761C257.963 413.312 258.259 412.923 258.696 412.594C259.139 412.264 259.739 412.099 260.494 412.099C261.21 412.099 261.759 412.276 262.139 412.628C262.52 412.98 262.71 413.477 262.71 414.119V414.17C262.71 414.466 262.599 414.685 262.378 414.827C262.162 414.963 261.815 415.065 261.338 415.134C260.861 415.196 260.239 415.267 259.472 415.347C258.835 415.415 258.219 415.526 257.622 415.679C257.031 415.827 256.5 416.045 256.028 416.335C255.557 416.625 255.185 417.011 254.912 417.494C254.639 417.977 254.503 418.588 254.503 419.327C254.503 420.185 254.693 420.906 255.074 421.491C255.46 422.077 255.983 422.52 256.642 422.821ZM261.295 420.631C260.841 420.875 260.304 420.997 259.685 420.997C259.043 420.997 258.514 420.852 258.099 420.562C257.685 420.273 257.477 419.844 257.477 419.276C257.477 418.878 257.582 418.554 257.793 418.304C258.003 418.048 258.29 417.849 258.653 417.707C259.017 417.565 259.429 417.463 259.889 417.401C260.094 417.372 260.335 417.338 260.614 417.298C260.892 417.259 261.173 417.213 261.457 417.162C261.741 417.111 261.997 417.051 262.224 416.983C262.457 416.915 262.622 416.841 262.719 416.761V418.304C262.719 418.787 262.594 419.233 262.344 419.642C262.099 420.051 261.75 420.381 261.295 420.631ZM274.851 409.909V423H277.936V409.909H274.851ZM275.141 407.565C275.493 407.889 275.913 408.051 276.402 408.051C276.896 408.051 277.317 407.889 277.663 407.565C278.016 407.236 278.192 406.841 278.192 406.381C278.192 405.915 278.016 405.52 277.663 405.196C277.317 404.866 276.896 404.702 276.402 404.702C275.913 404.702 275.493 404.866 275.141 405.196C274.788 405.52 274.612 405.915 274.612 406.381C274.612 406.841 274.788 407.236 275.141 407.565ZM281.109 409.909V423H284.194V415.04C284.194 414.5 284.302 414.028 284.518 413.625C284.734 413.216 285.023 412.901 285.387 412.679C285.751 412.452 286.154 412.338 286.597 412.338C287.251 412.338 287.779 412.54 288.183 412.943C288.592 413.347 288.796 413.886 288.796 414.562V423H291.822V414.835C291.822 414.097 292.029 413.497 292.444 413.037C292.864 412.571 293.447 412.338 294.191 412.338C294.816 412.338 295.344 412.528 295.776 412.909C296.208 413.284 296.424 413.878 296.424 414.69V423H299.518V414.213C299.518 412.753 299.137 411.642 298.376 410.881C297.614 410.119 296.631 409.739 295.427 409.739C294.478 409.739 293.657 409.957 292.964 410.395C292.276 410.827 291.788 411.406 291.498 412.134H291.362C291.112 411.395 290.68 410.812 290.066 410.386C289.458 409.955 288.711 409.739 287.825 409.739C286.95 409.739 286.197 409.952 285.566 410.378C284.935 410.798 284.484 411.384 284.211 412.134H284.058V409.909H281.109ZM304.173 422.821C304.838 423.116 305.585 423.264 306.415 423.264C307.097 423.264 307.69 423.17 308.196 422.983C308.707 422.79 309.131 422.537 309.466 422.224C309.807 421.906 310.071 421.565 310.259 421.202H310.361V423H313.327V414.239C313.327 413.369 313.168 412.645 312.849 412.065C312.537 411.486 312.122 411.028 311.605 410.693C311.088 410.352 310.517 410.108 309.892 409.96C309.267 409.812 308.639 409.739 308.009 409.739C307.094 409.739 306.259 409.875 305.503 410.148C304.747 410.415 304.108 410.818 303.585 411.358C303.062 411.892 302.688 412.557 302.46 413.352L305.341 413.761C305.494 413.312 305.79 412.923 306.227 412.594C306.67 412.264 307.27 412.099 308.026 412.099C308.741 412.099 309.29 412.276 309.67 412.628C310.051 412.98 310.241 413.477 310.241 414.119V414.17C310.241 414.466 310.131 414.685 309.909 414.827C309.693 414.963 309.347 415.065 308.869 415.134C308.392 415.196 307.77 415.267 307.003 415.347C306.366 415.415 305.75 415.526 305.153 415.679C304.562 415.827 304.031 416.045 303.56 416.335C303.088 416.625 302.716 417.011 302.443 417.494C302.17 417.977 302.034 418.588 302.034 419.327C302.034 420.185 302.224 420.906 302.605 421.491C302.991 422.077 303.514 422.52 304.173 422.821ZM308.827 420.631C308.372 420.875 307.835 420.997 307.216 420.997C306.574 420.997 306.045 420.852 305.631 420.562C305.216 420.273 305.009 419.844 305.009 419.276C305.009 418.878 305.114 418.554 305.324 418.304C305.534 418.048 305.821 417.849 306.185 417.707C306.548 417.565 306.96 417.463 307.42 417.401C307.52 417.387 307.628 417.372 307.745 417.355C307.869 417.338 308.002 417.319 308.145 417.298C308.423 417.259 308.705 417.213 308.989 417.162C309.273 417.111 309.528 417.051 309.756 416.983C309.989 416.915 310.153 416.841 310.25 416.761V418.304C310.25 418.787 310.125 419.233 309.875 419.642C309.631 420.051 309.281 420.381 308.827 420.631ZM319.267 427.73C320.062 428.031 321.014 428.182 322.122 428.182C323.298 428.182 324.349 428 325.276 427.636C326.202 427.273 326.932 426.724 327.466 425.991C328 425.259 328.267 424.332 328.267 423.213V409.909H325.224V412.074H325.054C324.901 411.756 324.676 411.418 324.381 411.06C324.085 410.696 323.688 410.386 323.188 410.131C322.693 409.869 322.062 409.739 321.295 409.739C320.29 409.739 319.378 409.997 318.56 410.514C317.741 411.026 317.091 411.778 316.608 412.773C316.131 413.761 315.892 414.974 315.892 416.412C315.892 417.838 316.131 419.026 316.608 419.974C317.091 420.918 317.739 421.628 318.551 422.105C319.369 422.577 320.281 422.812 321.287 422.812C322.037 422.812 322.659 422.699 323.153 422.472C323.653 422.244 324.054 421.963 324.355 421.628C324.662 421.293 324.895 420.966 325.054 420.648H325.207V423.128C325.207 424.094 324.92 424.787 324.347 425.207C323.773 425.634 323.048 425.847 322.173 425.847C321.554 425.847 321.04 425.761 320.631 425.591C320.227 425.426 319.906 425.216 319.668 424.96C319.429 424.71 319.247 424.457 319.122 424.202L316.344 424.875C316.531 425.483 316.866 426.037 317.349 426.537C317.832 427.037 318.472 427.435 319.267 427.73ZM323.818 419.915C323.358 420.233 322.801 420.392 322.148 420.392C321.472 420.392 320.901 420.227 320.435 419.898C319.974 419.562 319.625 419.097 319.386 418.5C319.153 417.898 319.037 417.196 319.037 416.395C319.037 415.605 319.153 414.901 319.386 414.281C319.619 413.656 319.966 413.165 320.426 412.807C320.886 412.449 321.46 412.27 322.148 412.27C322.812 412.27 323.372 412.443 323.827 412.79C324.287 413.131 324.634 413.611 324.866 414.23C325.105 414.849 325.224 415.571 325.224 416.395C325.224 417.23 325.105 417.946 324.866 418.543C324.628 419.139 324.278 419.597 323.818 419.915ZM333.824 422.438C334.778 422.983 335.912 423.256 337.224 423.256C338.241 423.256 339.145 423.102 339.935 422.795C340.724 422.483 341.372 422.045 341.878 421.483C342.389 420.915 342.736 420.25 342.918 419.489L340.037 419.165C339.901 419.534 339.699 419.844 339.432 420.094C339.165 420.344 338.849 420.534 338.486 420.665C338.122 420.79 337.716 420.852 337.267 420.852C336.597 420.852 336.011 420.71 335.511 420.426C335.011 420.136 334.622 419.722 334.344 419.182C334.075 418.655 333.936 418.027 333.927 417.298H343.045V416.352C343.045 415.205 342.886 414.216 342.568 413.386C342.25 412.551 341.812 411.864 341.256 411.324C340.705 410.784 340.068 410.386 339.347 410.131C338.631 409.869 337.869 409.739 337.062 409.739C335.812 409.739 334.724 410.026 333.798 410.599C332.872 411.168 332.151 411.963 331.634 412.986C331.122 414.003 330.866 415.185 330.866 416.531C330.866 417.901 331.122 419.091 331.634 420.102C332.145 421.108 332.875 421.886 333.824 422.438ZM333.932 415.219C333.962 414.706 334.094 414.231 334.327 413.795C334.594 413.301 334.966 412.903 335.443 412.602C335.92 412.295 336.474 412.142 337.105 412.142C337.696 412.142 338.213 412.276 338.656 412.543C339.105 412.81 339.455 413.176 339.705 413.642C339.955 414.102 340.082 414.628 340.088 415.219H333.932ZM345.656 409.909V423H348.741V415.04C348.741 414.5 348.849 414.028 349.065 413.625C349.281 413.216 349.57 412.901 349.934 412.679C350.298 412.452 350.701 412.338 351.144 412.338C351.798 412.338 352.326 412.54 352.729 412.943C353.138 413.347 353.343 413.886 353.343 414.562V423H356.369V414.835C356.369 414.097 356.576 413.497 356.991 413.037C357.411 412.571 357.994 412.338 358.738 412.338C359.363 412.338 359.891 412.528 360.323 412.909C360.755 413.284 360.971 413.878 360.971 414.69V423H364.065V414.213C364.065 412.753 363.684 411.642 362.923 410.881C362.161 410.119 361.178 409.739 359.974 409.739C359.025 409.739 358.204 409.957 357.511 410.395C356.823 410.827 356.335 411.406 356.045 412.134H355.908C355.658 411.395 355.227 410.812 354.613 410.386C354.005 409.955 353.258 409.739 352.371 409.739C351.496 409.739 350.744 409.952 350.113 410.378C349.482 410.798 349.031 411.384 348.758 412.134H348.604V409.909H345.656Z" fill="#CCA78D"/>
</svg>
