<svg width="583" height="583" viewBox="0 0 583 583" fill="none" xmlns="http://www.w3.org/2000/svg">
<path fill-rule="evenodd" clip-rule="evenodd" d="M5.5 13C5.5 8.85786 8.85786 5.5 13 5.5H36.2083C37.589 5.5 38.7083 4.38071 38.7083 3C38.7083 1.61929 37.589 0.5 36.2083 0.5H13C6.09644 0.5 0.5 6.09643 0.5 13V36.2084C0.5 37.5891 1.61929 38.7084 3 38.7084C4.38071 38.7084 5.5 37.5891 5.5 36.2084V13ZM82.625 0.5C81.2443 0.5 80.125 1.61929 80.125 3C80.125 4.38071 81.2443 5.5 82.625 5.5H129.042C130.422 5.5 131.542 4.38071 131.542 3C131.542 1.61929 130.422 0.5 129.042 0.5H82.625ZM175.458 0.5C174.078 0.5 172.958 1.61929 172.958 3C172.958 4.38071 174.078 5.5 175.458 5.5H221.875C223.256 5.5 224.375 4.38071 224.375 3C224.375 1.61929 223.256 0.5 221.875 0.5H175.458ZM268.292 0.5C266.911 0.5 265.792 1.61929 265.792 3C265.792 4.38071 266.911 5.5 268.292 5.5H314.708C316.089 5.5 317.208 4.38071 317.208 3C317.208 1.61929 316.089 0.5 314.708 0.5H268.292ZM361.125 0.5C359.744 0.5 358.625 1.61929 358.625 3C358.625 4.38071 359.744 5.5 361.125 5.5H407.542C408.922 5.5 410.042 4.38071 410.042 3C410.042 1.61929 408.922 0.5 407.542 0.5H361.125ZM453.958 0.5C452.578 0.5 451.458 1.61929 451.458 3C451.458 4.38071 452.578 5.5 453.958 5.5H500.375C501.756 5.5 502.875 4.38071 502.875 3C502.875 1.61929 501.756 0.5 500.375 0.5H453.958ZM546.792 0.5C545.411 0.5 544.292 1.61929 544.292 3C544.292 4.38071 545.411 5.5 546.792 5.5H570C574.142 5.5 577.5 8.85786 577.5 13V36.2083C577.5 37.589 578.619 38.7083 580 38.7083C581.381 38.7083 582.5 37.589 582.5 36.2083V13C582.5 6.09644 576.904 0.5 570 0.5H546.792ZM582.5 82.625C582.5 81.2443 581.381 80.125 580 80.125C578.619 80.125 577.5 81.2443 577.5 82.625V129.042C577.5 130.422 578.619 131.542 580 131.542C581.381 131.542 582.5 130.422 582.5 129.042V82.625ZM5.5 82.625C5.5 81.2443 4.38071 80.125 3 80.125C1.61929 80.125 0.5 81.2443 0.5 82.625V129.042C0.5 130.422 1.61929 131.542 3 131.542C4.38071 131.542 5.5 130.422 5.5 129.042V82.625ZM5.5 175.458C5.5 174.078 4.38071 172.958 3 172.958C1.61929 172.958 0.5 174.078 0.5 175.458V221.875C0.5 223.256 1.61929 224.375 3 224.375C4.38071 224.375 5.5 223.256 5.5 221.875V175.458ZM582.5 175.458C582.5 174.078 581.381 172.958 580 172.958C578.619 172.958 577.5 174.078 577.5 175.458V221.875C577.5 223.256 578.619 224.375 580 224.375C581.381 224.375 582.5 223.256 582.5 221.875V175.458ZM5.5 268.292C5.5 266.911 4.38071 265.792 3 265.792C1.61929 265.792 0.5 266.911 0.5 268.292V314.708C0.5 316.089 1.61929 317.208 3 317.208C4.38071 317.208 5.5 316.089 5.5 314.708V268.292ZM582.5 268.292C582.5 266.911 581.381 265.792 580 265.792C578.619 265.792 577.5 266.911 577.5 268.292V314.708C577.5 316.089 578.619 317.208 580 317.208C581.381 317.208 582.5 316.089 582.5 314.708V268.292ZM5.5 361.125C5.5 359.744 4.38071 358.625 3 358.625C1.61929 358.625 0.5 359.744 0.5 361.125V407.542C0.5 408.922 1.61929 410.042 3 410.042C4.38071 410.042 5.5 408.922 5.5 407.542V361.125ZM582.5 361.125C582.5 359.744 581.381 358.625 580 358.625C578.619 358.625 577.5 359.744 577.5 361.125V407.542C577.5 408.922 578.619 410.042 580 410.042C581.381 410.042 582.5 408.922 582.5 407.542V361.125ZM5.5 453.958C5.5 452.578 4.38071 451.458 3 451.458C1.61929 451.458 0.5 452.578 0.5 453.958V500.375C0.5 501.756 1.61929 502.875 3 502.875C4.38071 502.875 5.5 501.756 5.5 500.375V453.958ZM582.5 453.958C582.5 452.578 581.381 451.458 580 451.458C578.619 451.458 577.5 452.578 577.5 453.958V500.375C577.5 501.756 578.619 502.875 580 502.875C581.381 502.875 582.5 501.756 582.5 500.375V453.958ZM582.5 546.792C582.5 545.411 581.381 544.292 580 544.292C578.619 544.292 577.5 545.411 577.5 546.792V570C577.5 574.142 574.142 577.5 570 577.5H546.792C545.411 577.5 544.292 578.619 544.292 580C544.292 581.381 545.411 582.5 546.792 582.5H570C576.904 582.5 582.5 576.904 582.5 570V546.792ZM5.5 546.792C5.5 545.411 4.38071 544.292 3 544.292C1.61929 544.292 0.5 545.411 0.5 546.792V570C0.5 576.904 6.09643 582.5 13 582.5H36.2084C37.5891 582.5 38.7084 581.381 38.7084 580C38.7084 578.619 37.5891 577.5 36.2084 577.5H13C8.85786 577.5 5.5 574.142 5.5 570V546.792ZM82.625 577.5C81.2443 577.5 80.125 578.619 80.125 580C80.125 581.381 81.2443 582.5 82.625 582.5H129.042C130.422 582.5 131.542 581.381 131.542 580C131.542 578.619 130.422 577.5 129.042 577.5H82.625ZM175.458 577.5C174.078 577.5 172.958 578.619 172.958 580C172.958 581.381 174.078 582.5 175.458 582.5H221.875C223.256 582.5 224.375 581.381 224.375 580C224.375 578.619 223.256 577.5 221.875 577.5H175.458ZM268.292 577.5C266.911 577.5 265.792 578.619 265.792 580C265.792 581.381 266.911 582.5 268.292 582.5H314.708C316.089 582.5 317.208 581.381 317.208 580C317.208 578.619 316.089 577.5 314.708 577.5H268.292ZM361.125 577.5C359.744 577.5 358.625 578.619 358.625 580C358.625 581.381 359.744 582.5 361.125 582.5H407.542C408.922 582.5 410.042 581.381 410.042 580C410.042 578.619 408.922 577.5 407.542 577.5H361.125ZM453.958 577.5C452.578 577.5 451.458 578.619 451.458 580C451.458 581.381 452.578 582.5 453.958 582.5H500.375C501.756 582.5 502.875 581.381 502.875 580C502.875 578.619 501.756 577.5 500.375 577.5H453.958ZM293.281 133.246C292.811 132.769 292.17 132.5 291.5 132.5C290.83 132.5 290.189 132.769 289.719 133.246L253.885 169.635C252.917 170.619 252.929 172.201 253.913 173.17C254.896 174.139 256.479 174.127 257.448 173.143L289 141.102V141.189V141.297V141.406V141.516V141.626V141.738V141.85V141.963V142.077V142.191V142.307V142.423V142.54V142.658V142.776V142.896V143.016V143.137V143.258V143.381V143.504V143.628V143.753V143.878V144.005V144.132V144.26V144.388V144.517V144.647V144.778V144.91V145.042V145.175V145.309V145.443V145.578V145.714V145.851V145.988V146.126V146.265V146.404V146.544V146.685V146.827V146.969V147.112V147.255V147.4V147.545V147.69V147.837V147.984V148.131V148.28V148.429V148.578V148.728V148.879V149.031V149.183V149.336V149.49V149.644V149.799V149.954V150.11V150.267V150.424V150.582V150.741V150.9V151.06V151.22V151.381V151.543V151.705V151.868V152.031V152.195V152.36V152.525V152.691V152.857V153.024V153.192V153.36V153.528V153.698V153.867V154.038V154.208V154.38V154.552V154.724V154.898V155.071V155.245V155.42V155.595V155.771V155.947V156.124V156.301V156.479V156.658V156.836V157.016V157.196V157.376V157.557V157.738V157.92V158.103V158.285V158.469V158.653V158.837V159.022V159.207V159.393V159.579V159.766V159.953V160.14V160.328V160.517V160.706V160.895V161.085V161.275V161.466V161.657V161.849V162.041V162.233V162.426V162.619V162.813V163.007V163.201V163.396V163.592V163.787V163.984V164.18V164.377V164.574V164.772V164.97V165.169V165.367V165.567V165.766V165.966V166.166V166.367V166.568V166.77V166.971V167.173V167.376V167.579V167.782V167.985V168.189V168.393V168.598V168.803V169.008V169.213V169.419V169.625V169.832V170.038V170.245V170.453V170.66V170.868V171.076V171.285V171.494V171.703V171.912V172.122V172.332V172.542V172.753V172.963V173.174V173.386V173.597V173.809V174.021V174.233V174.446V174.659V174.872V175.085V175.298V175.512V175.726V175.94V176.155V176.369V176.584V176.799V177.015V177.23V177.446V177.662V177.878V178.094V178.311V178.527V178.744V178.961V179.179V179.396V179.614V179.832V180.049V180.268V180.486V180.704V180.923V181.142V181.361V181.58V181.799V182.018V182.238V182.457V182.677V182.897V183.117V183.337V183.558V183.778V183.999V184.219V184.44V184.661V184.882V185.103V185.324V185.545V185.767V185.988V186.21V186.431V186.653V186.875V187.097V187.319V187.541V187.763V187.985V188.207V188.429V188.651V188.874V189.096V189.319V189.541V189.764V189.986V190.209V190.432V190.654V190.877V191.1V191.322V191.545V191.768V191.991V192.213V192.436V192.659V192.882V193.105V193.327V193.55V193.773V193.996V194.218V194.441V194.664V194.886V195.109V195.332V195.554V195.777V195.999V196.221V196.444V196.666V196.888V197.111V197.333V197.555V197.777V197.999V198.221V198.443V198.664V198.886V199.107V199.329V199.55V199.772V199.993V200.214V200.435V200.656V200.876V201.097V201.318V201.538V201.758V201.979V202.199V202.419V202.638V202.858V203.078V203.297V203.516V203.735V203.954V204.173V204.392V204.61V204.828V205.047V205.265V205.482V205.7V205.918V206.135V206.352V206.569V206.786V207.002V207.219V207.435V207.651V207.866V208.082V208.297V208.512V208.727V208.942V209.156V209.371V209.585V209.798V210.012V210.225V210.438V210.651V210.864V211.076V211.288V211.5V211.712V211.923V212.134V212.345V212.556V212.766V212.976V213.185V213.395V213.604V213.813V214.021V214.23V214.438V214.645V214.853V215.06V215.267V215.473V215.679V215.885V216.091V216.296V216.501V216.705V216.91V217.113V217.317V217.52V217.723V217.926V218.128V218.33V218.531V218.732V218.933V219.133V219.333C289 220.714 290.119 221.833 291.5 221.833C292.881 221.833 294 220.714 294 219.333V219.133V218.933V218.732V218.531V218.33V218.128V217.926V217.723V217.52V217.317V217.113V216.91V216.705V216.501V216.296V216.091V215.885V215.679V215.473V215.267V215.06V214.853V214.645V214.438V214.23V214.021V213.813V213.604V213.395V213.185V212.976V212.766V212.556V212.345V212.134V211.923V211.712V211.5V211.288V211.076V210.864V210.651V210.438V210.225V210.012V209.798V209.585V209.371V209.156V208.942V208.727V208.512V208.297V208.082V207.866V207.651V207.435V207.219V207.002V206.786V206.569V206.352V206.135V205.918V205.7V205.482V205.265V205.047V204.828V204.61V204.392V204.173V203.954V203.735V203.516V203.297V203.078V202.858V202.638V202.419V202.199V201.979V201.758V201.538V201.318V201.097V200.876V200.656V200.435V200.214V199.993V199.772V199.55V199.329V199.107V198.886V198.664V198.443V198.221V197.999V197.777V197.555V197.333V197.111V196.888V196.666V196.444V196.221V195.999V195.777V195.554V195.332V195.109V194.886V194.664V194.441V194.218V193.996V193.773V193.55V193.327V193.105V192.882V192.659V192.436V192.213V191.991V191.768V191.545V191.322V191.1V190.877V190.654V190.432V190.209V189.986V189.764V189.541V189.319V189.096V188.874V188.651V188.429V188.207V187.985V187.763V187.541V187.319V187.097V186.875V186.653V186.431V186.21V185.988V185.767V185.545V185.324V185.103V184.882V184.661V184.44V184.219V183.999V183.778V183.558V183.337V183.117V182.897V182.677V182.457V182.238V182.018V181.799V181.58V181.361V181.142V180.923V180.704V180.486V180.268V180.049V179.832V179.614V179.396V179.179V178.961V178.744V178.527V178.311V178.094V177.878V177.662V177.446V177.23V177.015V176.799V176.584V176.369V176.155V175.94V175.726V175.512V175.298V175.085V174.872V174.659V174.446V174.233V174.021V173.809V173.597V173.386V173.174V172.963V172.753V172.542V172.332V172.122V171.912V171.703V171.494V171.285V171.076V170.868V170.66V170.453V170.245V170.038V169.832V169.625V169.419V169.213V169.008V168.803V168.598V168.393V168.189V167.985V167.782V167.579V167.376V167.173V166.971V166.77V166.568V166.367V166.166V165.966V165.766V165.567V165.367V165.169V164.97V164.772V164.574V164.377V164.18V163.984V163.787V163.592V163.396V163.201V163.007V162.813V162.619V162.426V162.233V162.041V161.849V161.657V161.466V161.275V161.085V160.895V160.706V160.517V160.328V160.14V159.953V159.766V159.579V159.393V159.207V159.022V158.837V158.653V158.469V158.285V158.103V157.92V157.738V157.557V157.376V157.196V157.016V156.836V156.658V156.479V156.301V156.124V155.947V155.771V155.595V155.42V155.245V155.071V154.898V154.724V154.552V154.38V154.208V154.038V153.867V153.698V153.528V153.36V153.192V153.024V152.857V152.691V152.525V152.36V152.195V152.031V151.868V151.705V151.543V151.381V151.22V151.06V150.9V150.741V150.582V150.424V150.267V150.11V149.954V149.799V149.644V149.49V149.336V149.183V149.031V148.879V148.728V148.578V148.429V148.28V148.131V147.984V147.837V147.69V147.545V147.4V147.255V147.112V146.969V146.827V146.685V146.544V146.404V146.265V146.126V145.988V145.851V145.714V145.578V145.443V145.309V145.175V145.042V144.91V144.778V144.647V144.517V144.388V144.26V144.132V144.005V143.878V143.753V143.628V143.504V143.381V143.258V143.137V143.016V142.896V142.776V142.658V142.54V142.423V142.307V142.191V142.077V141.963V141.85V141.738V141.626V141.516V141.406V141.297V141.189V141.102L325.552 173.143C326.521 174.127 328.104 174.139 329.087 173.17C330.071 172.201 330.083 170.619 329.115 169.635L293.281 133.246ZM229.5 219.333C229.5 217.953 228.381 216.833 227 216.833C225.619 216.833 224.5 217.953 224.5 219.333V248.444C224.5 252.956 226.264 257.29 229.417 260.491C232.571 263.694 236.856 265.5 241.333 265.5H341.667C346.144 265.5 350.429 263.694 353.583 260.491C356.736 257.29 358.5 252.956 358.5 248.444V219.333C358.5 217.953 357.381 216.833 356 216.833C354.619 216.833 353.5 217.953 353.5 219.333V248.444C353.5 251.654 352.244 254.725 350.021 256.983C347.798 259.239 344.793 260.5 341.667 260.5H241.333C238.207 260.5 235.202 259.239 232.979 256.983C230.756 254.725 229.5 251.654 229.5 248.444V219.333ZM156.699 382H151.074L161.315 352.909H167.821L178.077 382H172.452L170.042 374.827H159.105L156.699 382ZM164.682 358.875L168.619 370.594H160.524L164.455 358.875H164.682ZM181.681 382V360.182H186.667V363.818H186.894C187.292 362.559 187.974 361.588 188.94 360.906C189.915 360.215 191.028 359.869 192.278 359.869C192.562 359.869 192.879 359.884 193.229 359.912C193.589 359.931 193.888 359.964 194.124 360.011V364.741C193.906 364.666 193.561 364.599 193.087 364.543C192.623 364.476 192.174 364.443 191.738 364.443C190.8 364.443 189.958 364.647 189.21 365.054C188.471 365.452 187.888 366.006 187.462 366.716C187.036 367.426 186.823 368.245 186.823 369.173V382H181.681ZM197.54 382V360.182H202.526V363.818H202.754C203.151 362.559 203.833 361.588 204.799 360.906C205.774 360.215 206.887 359.869 208.137 359.869C208.421 359.869 208.738 359.884 209.089 359.912C209.449 359.931 209.747 359.964 209.984 360.011V364.741C209.766 364.666 209.42 364.599 208.947 364.543C208.483 364.476 208.033 364.443 207.597 364.443C206.66 364.443 205.817 364.647 205.069 365.054C204.33 365.452 203.748 366.006 203.322 366.716C202.896 367.426 202.683 368.245 202.683 369.173V382H197.54ZM219.288 382.44C217.905 382.44 216.66 382.194 215.552 381.702C214.453 381.2 213.582 380.461 212.938 379.486C212.304 378.51 211.987 377.308 211.987 375.878C211.987 374.647 212.214 373.629 212.668 372.824C213.123 372.019 213.743 371.375 214.529 370.892C215.315 370.409 216.201 370.044 217.185 369.798C218.18 369.543 219.207 369.358 220.268 369.244C221.546 369.112 222.583 368.993 223.379 368.889C224.174 368.776 224.752 368.605 225.112 368.378C225.481 368.141 225.665 367.777 225.665 367.284V367.199C225.665 366.129 225.348 365.3 224.714 364.713C224.079 364.126 223.165 363.832 221.972 363.832C220.713 363.832 219.714 364.107 218.975 364.656C218.246 365.206 217.754 365.854 217.498 366.602L212.697 365.92C213.076 364.595 213.701 363.487 214.572 362.597C215.443 361.697 216.508 361.025 217.768 360.58C219.027 360.125 220.419 359.898 221.944 359.898C222.995 359.898 224.041 360.021 225.083 360.267C226.125 360.513 227.076 360.92 227.938 361.489C228.8 362.047 229.491 362.81 230.012 363.776C230.542 364.741 230.808 365.949 230.808 367.398V382H225.864V379.003H225.694C225.381 379.609 224.941 380.177 224.373 380.707C223.814 381.228 223.109 381.65 222.256 381.972C221.414 382.284 220.424 382.44 219.288 382.44ZM220.623 378.662C221.655 378.662 222.55 378.458 223.308 378.051C224.065 377.634 224.647 377.085 225.055 376.403C225.471 375.722 225.68 374.978 225.68 374.173V371.602C225.519 371.735 225.244 371.858 224.856 371.972C224.477 372.085 224.051 372.185 223.577 372.27C223.104 372.355 222.635 372.431 222.171 372.497C221.707 372.563 221.305 372.62 220.964 372.668C220.197 372.772 219.51 372.942 218.904 373.179C218.298 373.416 217.82 373.747 217.469 374.173C217.119 374.59 216.944 375.13 216.944 375.793C216.944 376.74 217.29 377.455 217.981 377.938C218.672 378.42 219.553 378.662 220.623 378.662ZM253.222 365.949L248.535 366.46C248.402 365.987 248.17 365.542 247.839 365.125C247.517 364.708 247.081 364.372 246.532 364.116C245.983 363.861 245.31 363.733 244.515 363.733C243.445 363.733 242.545 363.965 241.816 364.429C241.096 364.893 240.741 365.494 240.751 366.233C240.741 366.867 240.973 367.384 241.447 367.781C241.93 368.179 242.725 368.506 243.833 368.761L247.555 369.557C249.619 370.002 251.153 370.707 252.157 371.673C253.17 372.639 253.682 373.903 253.691 375.466C253.682 376.839 253.279 378.051 252.484 379.102C251.698 380.144 250.604 380.958 249.202 381.545C247.801 382.133 246.191 382.426 244.373 382.426C241.702 382.426 239.553 381.867 237.924 380.75C236.295 379.623 235.325 378.056 235.012 376.048L240.026 375.565C240.254 376.55 240.737 377.294 241.475 377.795C242.214 378.297 243.175 378.548 244.359 378.548C245.58 378.548 246.56 378.297 247.299 377.795C248.047 377.294 248.421 376.673 248.421 375.935C248.421 375.31 248.18 374.794 247.697 374.386C247.223 373.979 246.485 373.667 245.481 373.449L241.759 372.668C239.666 372.232 238.118 371.498 237.114 370.466C236.111 369.424 235.613 368.108 235.623 366.517C235.613 365.172 235.978 364.008 236.717 363.023C237.465 362.028 238.502 361.261 239.827 360.722C241.163 360.172 242.701 359.898 244.444 359.898C247.001 359.898 249.013 360.442 250.481 361.531C251.958 362.62 252.872 364.093 253.222 365.949ZM268.826 360.182V364.159H264.522V375.438C264.522 376.129 264.626 376.659 264.835 377.028C265.052 377.388 265.336 377.634 265.687 377.767C266.037 377.9 266.425 377.966 266.852 377.966C267.174 377.966 267.467 377.942 267.732 377.895C268.007 377.848 268.215 377.805 268.357 377.767L269.224 381.787C268.949 381.882 268.556 381.986 268.045 382.099C267.543 382.213 266.927 382.279 266.198 382.298C264.91 382.336 263.75 382.142 262.718 381.716C261.686 381.28 260.867 380.608 260.261 379.699C259.664 378.79 259.371 377.653 259.38 376.29V364.159H256.283V360.182H259.38V354.955H264.522V360.182H268.826ZM282.551 382.426C280.364 382.426 278.474 381.972 276.884 381.062C275.302 380.144 274.085 378.847 273.233 377.17C272.381 375.485 271.955 373.501 271.955 371.219C271.955 368.974 272.381 367.005 273.233 365.31C274.095 363.605 275.297 362.279 276.841 361.332C278.384 360.376 280.198 359.898 282.281 359.898C283.626 359.898 284.895 360.116 286.088 360.551C287.291 360.977 288.351 361.64 289.27 362.54C290.198 363.439 290.927 364.585 291.457 365.977C291.988 367.36 292.253 369.008 292.253 370.92V372.497H277.055C277.07 373.712 277.302 374.758 277.75 375.636C278.214 376.536 278.863 377.227 279.696 377.71C280.529 378.184 281.505 378.42 282.622 378.42C283.37 378.42 284.047 378.316 284.653 378.108C285.259 377.89 285.785 377.573 286.23 377.156C286.675 376.74 287.011 376.223 287.239 375.608L292.04 376.148C291.737 377.417 291.159 378.525 290.307 379.472C289.464 380.409 288.384 381.138 287.068 381.659C285.752 382.17 284.246 382.426 282.551 382.426ZM277.722 366.659C277.333 367.386 277.114 368.176 277.064 369.031H287.324C287.314 368.046 287.101 367.17 286.685 366.403C286.268 365.627 285.686 365.016 284.938 364.571C284.199 364.126 283.337 363.903 282.352 363.903C281.301 363.903 280.378 364.159 279.582 364.67C278.787 365.172 278.167 365.835 277.722 366.659ZM316.184 382.426C313.996 382.426 312.107 381.972 310.516 381.062C308.935 380.144 307.718 378.847 306.866 377.17C306.013 375.485 305.587 373.501 305.587 371.219C305.587 368.974 306.013 367.005 306.866 365.31C307.728 363.605 308.93 362.279 310.474 361.332C312.017 360.376 313.831 359.898 315.914 359.898C317.259 359.898 318.528 360.116 319.721 360.551C320.924 360.977 321.984 361.64 322.903 362.54C323.831 363.439 324.56 364.585 325.09 365.977C325.621 367.36 325.886 369.008 325.886 370.92V372.497H310.688C310.703 373.712 310.934 374.758 311.383 375.636C311.847 376.536 312.496 377.227 313.329 377.71C314.162 378.184 315.138 378.42 316.255 378.42C317.003 378.42 317.68 378.316 318.286 378.108C318.892 377.89 319.418 377.573 319.863 377.156C320.308 376.74 320.644 376.223 320.871 375.608L325.673 376.148C325.37 377.417 324.792 378.525 323.94 379.472C323.097 380.409 322.017 381.138 320.701 381.659C319.385 382.17 317.879 382.426 316.184 382.426ZM311.354 366.659C310.966 367.386 310.747 368.176 310.697 369.031H320.957C320.947 368.046 320.734 367.17 320.317 366.403C319.901 365.627 319.318 365.016 318.57 364.571C317.832 364.126 316.97 363.903 315.985 363.903C314.934 363.903 314.011 364.159 313.215 364.67C312.42 365.172 311.799 365.835 311.354 366.659ZM357.402 365.949L352.714 366.46C352.582 365.987 352.35 365.542 352.018 365.125C351.697 364.708 351.261 364.372 350.712 364.116C350.162 363.861 349.49 363.733 348.695 363.733C347.625 363.733 346.725 363.965 345.996 364.429C345.276 364.893 344.921 365.494 344.93 366.233C344.921 366.867 345.153 367.384 345.626 367.781C346.109 368.179 346.905 368.506 348.013 368.761L351.734 369.557C353.799 370.002 355.333 370.707 356.337 371.673C357.35 372.639 357.861 373.903 357.871 375.466C357.861 376.839 357.459 378.051 356.663 379.102C355.877 380.144 354.784 380.958 353.382 381.545C351.981 382.133 350.371 382.426 348.553 382.426C345.882 382.426 343.732 381.867 342.104 380.75C340.475 379.623 339.504 378.056 339.192 376.048L344.206 375.565C344.433 376.55 344.916 377.294 345.655 377.795C346.393 378.297 347.355 378.548 348.538 378.548C349.76 378.548 350.74 378.297 351.479 377.795C352.227 377.294 352.601 376.673 352.601 375.935C352.601 375.31 352.359 374.794 351.876 374.386C351.403 373.979 350.664 373.667 349.661 373.449L345.939 372.668C343.846 372.232 342.298 371.498 341.294 370.466C340.29 369.424 339.793 368.108 339.803 366.517C339.793 365.172 340.158 364.008 340.896 363.023C341.644 362.028 342.681 361.261 344.007 360.722C345.342 360.172 346.881 359.898 348.624 359.898C351.18 359.898 353.193 360.442 354.661 361.531C356.138 362.62 357.052 364.093 357.402 365.949ZM371.628 382.426C369.497 382.426 367.651 381.957 366.088 381.02C364.526 380.082 363.313 378.771 362.452 377.085C361.599 375.4 361.173 373.43 361.173 371.176C361.173 368.922 361.599 366.948 362.452 365.253C363.313 363.558 364.526 362.241 366.088 361.304C367.651 360.366 369.497 359.898 371.628 359.898C373.759 359.898 375.605 360.366 377.168 361.304C378.73 362.241 379.938 363.558 380.79 365.253C381.652 366.948 382.082 368.922 382.082 371.176C382.082 373.43 381.652 375.4 380.79 377.085C379.938 378.771 378.73 380.082 377.168 381.02C375.605 381.957 373.759 382.426 371.628 382.426ZM371.656 378.307C372.812 378.307 373.777 377.99 374.554 377.355C375.331 376.711 375.908 375.849 376.287 374.77C376.675 373.69 376.869 372.488 376.869 371.162C376.869 369.827 376.675 368.619 376.287 367.54C375.908 366.451 375.331 365.584 374.554 364.94C373.777 364.296 372.812 363.974 371.656 363.974C370.473 363.974 369.488 364.296 368.702 364.94C367.925 365.584 367.343 366.451 366.955 367.54C366.576 368.619 366.386 369.827 366.386 371.162C366.386 372.488 366.576 373.69 366.955 374.77C367.343 375.849 367.925 376.711 368.702 377.355C369.488 377.99 370.473 378.307 371.656 378.307ZM391.589 352.909V382H386.447V352.909H391.589ZM407.771 360.182V364.159H403.467V375.438C403.467 376.129 403.572 376.659 403.78 377.028C403.998 377.388 404.282 377.634 404.632 377.767C404.982 377.9 405.371 377.966 405.797 377.966C406.119 377.966 406.412 377.942 406.678 377.895C406.952 377.848 407.161 377.805 407.303 377.767L408.169 381.787C407.894 381.882 407.501 381.986 406.99 382.099C406.488 382.213 405.873 382.279 405.143 382.298C403.856 382.336 402.696 382.142 401.663 381.716C400.631 381.28 399.812 380.608 399.206 379.699C398.609 378.79 398.316 377.653 398.325 376.29V364.159H395.229V360.182H398.325V354.955H403.467V360.182H407.771ZM421.496 382.426C419.309 382.426 417.42 381.972 415.829 381.062C414.247 380.144 413.031 378.847 412.178 377.17C411.326 375.485 410.9 373.501 410.9 371.219C410.9 368.974 411.326 367.005 412.178 365.31C413.04 363.605 414.243 362.279 415.786 361.332C417.33 360.376 419.143 359.898 421.227 359.898C422.571 359.898 423.84 360.116 425.033 360.551C426.236 360.977 427.297 361.64 428.215 362.54C429.143 363.439 429.872 364.585 430.403 365.977C430.933 367.36 431.198 369.008 431.198 370.92V372.497H416C416.015 373.712 416.247 374.758 416.695 375.636C417.159 376.536 417.808 377.227 418.641 377.71C419.475 378.184 420.45 378.42 421.567 378.42C422.316 378.42 422.993 378.316 423.599 378.108C424.205 377.89 424.73 377.573 425.175 377.156C425.621 376.74 425.957 376.223 426.184 375.608L430.985 376.148C430.682 377.417 430.104 378.525 429.252 379.472C428.409 380.409 427.33 381.138 426.013 381.659C424.697 382.17 423.192 382.426 421.496 382.426ZM416.667 366.659C416.278 367.386 416.059 368.176 416.01 369.031H426.269C426.26 368.046 426.047 367.17 425.63 366.403C425.213 365.627 424.631 365.016 423.883 364.571C423.144 364.126 422.282 363.903 421.298 363.903C420.246 363.903 419.323 364.159 418.528 364.67C417.732 365.172 417.112 365.835 416.667 366.659ZM182.717 416.754C183.304 415.637 183.598 414.294 183.598 412.727C183.598 411.16 183.304 409.82 182.717 408.707C182.135 407.59 181.339 406.735 180.331 406.143C179.327 405.552 178.188 405.256 176.915 405.256C175.641 405.256 174.5 405.552 173.491 406.143C172.488 406.735 171.692 407.59 171.105 408.707C170.523 409.82 170.231 411.16 170.231 412.727C170.231 414.29 170.523 415.63 171.105 416.747C171.692 417.86 172.488 418.714 173.491 419.311C174.5 419.903 175.641 420.199 176.915 420.199C178.188 420.199 179.327 419.903 180.331 419.311C181.339 418.719 182.135 417.867 182.717 416.754ZM180.43 409.936C180.776 410.694 180.949 411.624 180.949 412.727C180.949 413.831 180.776 414.763 180.43 415.526C180.089 416.283 179.616 416.858 179.01 417.251C178.404 417.64 177.705 417.834 176.915 417.834C176.124 417.834 175.425 417.64 174.819 417.251C174.213 416.858 173.738 416.283 173.392 415.526C173.051 414.763 172.881 413.831 172.881 412.727C172.881 411.624 173.051 410.694 173.392 409.936C173.738 409.174 174.213 408.598 174.819 408.21C175.425 407.817 176.124 407.621 176.915 407.621C177.705 407.621 178.404 407.817 179.01 408.21C179.616 408.598 180.089 409.174 180.43 409.936ZM192.928 409.091V415.412C192.928 415.966 192.812 416.428 192.58 416.797C192.353 417.161 192.062 417.436 191.707 417.621C191.352 417.805 190.985 417.898 190.606 417.898C189.99 417.898 189.493 417.694 189.115 417.287C188.736 416.88 188.546 416.331 188.546 415.639V409.091H185.975V416.037C185.975 416.908 186.129 417.652 186.437 418.267C186.745 418.878 187.171 419.344 187.715 419.666C188.265 419.983 188.897 420.142 189.612 420.142C190.431 420.142 191.12 419.948 191.678 419.56C192.242 419.171 192.647 418.672 192.893 418.061H193.007V420H195.499V409.091H192.928ZM205.057 419.496C205.839 419.974 206.774 420.213 207.863 420.213C208.777 420.213 209.572 420.047 210.249 419.716C210.926 419.38 211.461 418.916 211.854 418.324C212.247 417.727 212.474 417.043 212.536 416.271H210.079C210.003 416.664 209.863 416.998 209.66 417.273C209.456 417.547 209.203 417.758 208.9 417.905C208.601 418.047 208.263 418.118 207.884 418.118C207.349 418.118 206.883 417.976 206.485 417.692C206.092 417.403 205.787 416.993 205.569 416.463C205.351 415.928 205.242 415.289 205.242 414.545C205.242 413.812 205.351 413.182 205.569 412.656C205.791 412.131 206.101 411.728 206.499 411.449C206.897 411.165 207.358 411.023 207.884 411.023C208.504 411.023 208.999 411.2 209.368 411.555C209.742 411.906 209.979 412.344 210.079 412.869H212.536C212.479 412.083 212.247 411.397 211.84 410.81C211.433 410.218 210.886 409.761 210.199 409.439C209.518 409.112 208.734 408.949 207.849 408.949C206.783 408.949 205.86 409.188 205.079 409.666C204.302 410.14 203.701 410.803 203.275 411.655C202.849 412.502 202.635 413.48 202.635 414.588C202.635 415.691 202.844 416.667 203.26 417.514C203.682 418.357 204.281 419.018 205.057 419.496ZM217.218 420V405.455H214.647V420H217.218ZM219.862 409.091V420H222.433V409.091H219.862ZM220.104 407.138C220.397 407.408 220.747 407.543 221.155 407.543C221.567 407.543 221.917 407.408 222.206 407.138C222.499 406.863 222.646 406.534 222.646 406.151C222.646 405.762 222.499 405.433 222.206 405.163C221.917 404.889 221.567 404.751 221.155 404.751C220.747 404.751 220.397 404.889 220.104 405.163C219.81 405.433 219.663 405.762 219.663 406.151C219.663 406.534 219.81 406.863 220.104 407.138ZM232.357 418.281V424.091H234.935V409.091H232.406V410.895H232.25C232.118 410.63 231.931 410.348 231.689 410.05C231.448 409.747 231.121 409.489 230.709 409.276C230.297 409.058 229.771 408.949 229.132 408.949C228.294 408.949 227.534 409.164 226.852 409.595C226.171 410.021 225.628 410.653 225.226 411.491C224.828 412.325 224.629 413.348 224.629 414.56C224.629 415.758 224.826 416.776 225.219 417.614C225.612 418.452 226.147 419.091 226.824 419.531C227.501 419.972 228.268 420.192 229.125 420.192C229.75 420.192 230.269 420.088 230.681 419.879C231.093 419.671 231.424 419.42 231.675 419.126C231.926 418.828 232.118 418.546 232.25 418.281H232.357ZM231.235 417.642C230.851 417.936 230.387 418.082 229.843 418.082C229.279 418.082 228.803 417.931 228.415 417.628C228.031 417.32 227.74 416.901 227.541 416.371C227.347 415.836 227.25 415.227 227.25 414.545C227.25 413.868 227.347 413.267 227.541 412.741C227.736 412.216 228.024 411.804 228.408 411.506C228.791 411.207 229.27 411.058 229.843 411.058C230.396 411.058 230.863 411.203 231.242 411.491C231.625 411.78 231.914 412.185 232.108 412.706C232.307 413.227 232.406 413.84 232.406 414.545C232.406 415.251 232.307 415.869 232.108 416.399C231.909 416.929 231.618 417.344 231.235 417.642ZM244.53 409.091V415.412C244.53 415.966 244.414 416.428 244.182 416.797C243.955 417.161 243.664 417.436 243.308 417.621C242.953 417.805 242.586 417.898 242.208 417.898C241.592 417.898 241.095 417.694 240.716 417.287C240.337 416.88 240.148 416.331 240.148 415.639V409.091H237.577V416.037C237.577 416.908 237.731 417.652 238.039 418.267C238.346 418.878 238.772 419.344 239.317 419.666C239.866 419.983 240.498 420.142 241.213 420.142C242.032 420.142 242.721 419.948 243.28 419.56C243.843 419.171 244.248 418.672 244.494 418.061H244.608V420H247.101V409.091H244.53ZM251.741 419.531C252.536 419.986 253.481 420.213 254.574 420.213C255.422 420.213 256.175 420.085 256.833 419.83C257.491 419.569 258.031 419.205 258.452 418.736C258.878 418.262 259.167 417.708 259.319 417.074L256.918 416.804C256.805 417.112 256.636 417.37 256.414 417.578C256.191 417.786 255.929 417.945 255.626 418.054C255.323 418.158 254.984 418.21 254.61 418.21C254.051 418.21 253.564 418.092 253.147 417.855C252.73 417.614 252.406 417.268 252.174 416.818C251.95 416.379 251.834 415.856 251.826 415.249H259.425V414.46C259.425 413.504 259.293 412.68 259.028 411.989C258.762 411.293 258.398 410.72 257.934 410.27C257.474 409.82 256.944 409.489 256.343 409.276C255.746 409.058 255.112 408.949 254.439 408.949C253.398 408.949 252.491 409.188 251.719 409.666C250.948 410.14 250.346 410.803 249.915 411.655C249.489 412.502 249.276 413.487 249.276 414.609C249.276 415.75 249.489 416.742 249.915 417.585C250.341 418.423 250.95 419.072 251.741 419.531ZM251.831 413.516C251.856 413.088 251.965 412.693 252.16 412.33C252.382 411.918 252.692 411.586 253.09 411.335C253.488 411.08 253.949 410.952 254.475 410.952C254.967 410.952 255.398 411.063 255.768 411.286C256.142 411.508 256.433 411.813 256.641 412.202C256.849 412.585 256.956 413.023 256.961 413.516H251.831ZM266.561 409.091V424.091H269.132V418.281H269.239C269.376 418.546 269.568 418.828 269.814 419.126C270.065 419.42 270.396 419.671 270.808 419.879C271.22 420.088 271.739 420.192 272.364 420.192C273.221 420.192 273.988 419.972 274.665 419.531C275.342 419.091 275.877 418.452 276.27 417.614C276.663 416.776 276.86 415.758 276.86 414.56C276.86 413.348 276.658 412.325 276.256 411.491C275.858 410.653 275.318 410.021 274.637 409.595C273.959 409.164 273.2 408.949 272.357 408.949C271.717 408.949 271.192 409.058 270.78 409.276C270.368 409.489 270.041 409.747 269.8 410.05C269.558 410.348 269.371 410.63 269.239 410.895H269.09V409.091H266.561ZM269.381 416.399C269.182 415.869 269.083 415.251 269.083 414.545C269.083 413.84 269.18 413.227 269.374 412.706C269.573 412.185 269.864 411.78 270.247 411.491C270.631 411.203 271.097 411.058 271.646 411.058C272.219 411.058 272.698 411.207 273.081 411.506C273.465 411.804 273.753 412.216 273.948 412.741C274.142 413.267 274.239 413.868 274.239 414.545C274.239 415.227 274.139 415.836 273.941 416.371C273.746 416.901 273.458 417.32 273.074 417.628C272.691 417.931 272.215 418.082 271.646 418.082C271.102 418.082 270.638 417.936 270.254 417.642C269.876 417.344 269.584 416.929 269.381 416.399ZM280.333 419.851C280.887 420.097 281.509 420.22 282.2 420.22C282.769 420.22 283.263 420.142 283.685 419.986C284.111 419.825 284.464 419.614 284.743 419.354C285.027 419.089 285.247 418.804 285.404 418.501H285.489V420H287.96V412.699C287.96 411.974 287.828 411.371 287.563 410.888C287.302 410.405 286.957 410.024 286.526 409.744C286.095 409.46 285.619 409.257 285.098 409.134C284.577 409.01 284.054 408.949 283.529 408.949C282.766 408.949 282.07 409.062 281.441 409.29C280.811 409.512 280.278 409.848 279.842 410.298C279.407 410.743 279.094 411.297 278.905 411.96L281.306 412.301C281.433 411.927 281.68 411.603 282.044 411.328C282.414 411.053 282.913 410.916 283.543 410.916C284.139 410.916 284.596 411.063 284.914 411.357C285.231 411.65 285.389 412.064 285.389 412.599V412.642C285.389 412.888 285.297 413.071 285.112 413.189C284.932 413.303 284.644 413.388 284.246 413.445C283.848 413.497 283.33 413.556 282.691 413.622C282.16 413.679 281.646 413.771 281.149 413.899C280.657 414.022 280.214 414.205 279.821 414.446C279.428 414.688 279.118 415.009 278.891 415.412C278.664 415.814 278.55 416.323 278.55 416.939C278.55 417.654 278.708 418.255 279.026 418.743C279.348 419.231 279.783 419.6 280.333 419.851ZM284.21 418.026C283.832 418.229 283.384 418.331 282.868 418.331C282.333 418.331 281.893 418.21 281.547 417.969C281.201 417.727 281.029 417.37 281.029 416.896C281.029 416.565 281.116 416.295 281.291 416.087C281.467 415.874 281.706 415.708 282.009 415.589C282.312 415.471 282.655 415.386 283.039 415.334C283.209 415.31 283.41 415.282 283.642 415.249C283.874 415.215 284.109 415.178 284.345 415.135C284.582 415.092 284.795 415.043 284.985 414.986C285.179 414.929 285.316 414.867 285.396 414.801V416.087C285.396 416.489 285.292 416.861 285.084 417.202C284.88 417.543 284.589 417.817 284.21 418.026ZM290.546 409.091V420H293.117V413.587C293.117 413.123 293.223 412.713 293.436 412.358C293.649 412.003 293.941 411.726 294.31 411.527C294.684 411.323 295.105 411.222 295.574 411.222C295.792 411.222 296.017 411.238 296.249 411.271C296.486 411.3 296.658 411.333 296.767 411.371V409.006C296.649 408.982 296.5 408.965 296.32 408.956C296.222 408.948 296.129 408.942 296.041 408.939C295.972 408.936 295.907 408.935 295.844 408.935C295.219 408.935 294.663 409.107 294.175 409.453C293.692 409.794 293.351 410.279 293.152 410.909H293.039V409.091H290.546ZM299.551 419.851C300.105 420.097 300.728 420.22 301.419 420.22C301.987 420.22 302.482 420.142 302.904 419.986C303.33 419.825 303.682 419.614 303.962 419.354C304.246 419.089 304.466 418.804 304.622 418.501H304.708V420H307.179V412.699C307.179 411.974 307.047 411.371 306.781 410.888C306.521 410.405 306.175 410.024 305.745 409.744C305.314 409.46 304.838 409.257 304.317 409.134C303.796 409.01 303.273 408.949 302.747 408.949C301.985 408.949 301.289 409.062 300.659 409.29C300.03 409.512 299.497 409.848 299.061 410.298C298.626 410.743 298.313 411.297 298.124 411.96L300.524 412.301C300.652 411.927 300.898 411.603 301.263 411.328C301.632 411.053 302.132 410.916 302.762 410.916C303.358 410.916 303.815 411.063 304.132 411.357C304.45 411.65 304.608 412.064 304.608 412.599V412.642C304.608 412.888 304.516 413.071 304.331 413.189C304.151 413.303 303.862 413.388 303.465 413.445C303.067 413.497 302.548 413.556 301.909 413.622C301.379 413.679 300.865 413.771 300.368 413.899C299.876 414.022 299.433 414.205 299.04 414.446C298.647 414.688 298.337 415.009 298.11 415.412C297.882 415.814 297.769 416.323 297.769 416.939C297.769 417.654 297.927 418.255 298.245 418.743C298.566 419.231 299.002 419.6 299.551 419.851ZM303.429 418.026C303.05 418.229 302.603 418.331 302.087 418.331C301.552 418.331 301.111 418.21 300.766 417.969C300.42 417.727 300.247 417.37 300.247 416.896C300.247 416.565 300.335 416.295 300.51 416.087C300.685 415.874 300.924 415.708 301.227 415.589C301.53 415.471 301.874 415.386 302.257 415.334C302.428 415.31 302.629 415.282 302.861 415.249C303.093 415.215 303.327 415.178 303.564 415.135C303.801 415.092 304.014 415.043 304.203 414.986C304.397 414.929 304.535 414.867 304.615 414.801V416.087C304.615 416.489 304.511 416.861 304.303 417.202C304.099 417.543 303.808 417.817 303.429 418.026ZM321.004 412.23L323.347 411.974C323.172 411.046 322.715 410.31 321.977 409.766C321.243 409.221 320.237 408.949 318.958 408.949C318.087 408.949 317.318 409.086 316.65 409.361C315.987 409.631 315.469 410.014 315.095 410.511C314.725 411.004 314.543 411.586 314.548 412.259C314.543 413.054 314.792 413.712 315.293 414.233C315.795 414.749 316.57 415.116 317.616 415.334L319.477 415.724C319.979 415.833 320.348 415.99 320.585 416.193C320.826 416.397 320.947 416.655 320.947 416.967C320.947 417.337 320.76 417.647 320.386 417.898C320.017 418.149 319.526 418.274 318.916 418.274C318.324 418.274 317.843 418.149 317.474 417.898C317.105 417.647 316.863 417.275 316.749 416.783L314.242 417.024C314.399 418.028 314.884 418.812 315.698 419.375C316.513 419.934 317.588 420.213 318.923 420.213C319.832 420.213 320.637 420.066 321.338 419.773C322.038 419.479 322.585 419.072 322.978 418.551C323.376 418.026 323.577 417.419 323.582 416.733C323.577 415.952 323.321 415.32 322.815 414.837C322.313 414.354 321.546 414.001 320.514 413.778L318.653 413.381C318.099 413.253 317.701 413.089 317.46 412.891C317.223 412.692 317.107 412.434 317.112 412.116C317.107 411.747 317.285 411.447 317.644 411.214C318.009 410.982 318.459 410.866 318.994 410.866C319.392 410.866 319.728 410.93 320.002 411.058C320.277 411.186 320.495 411.354 320.656 411.562C320.821 411.771 320.937 411.993 321.004 412.23ZM327.698 419.531C328.493 419.986 329.438 420.213 330.531 420.213C331.379 420.213 332.132 420.085 332.79 419.83C333.448 419.569 333.988 419.205 334.409 418.736C334.835 418.262 335.124 417.708 335.276 417.074L332.875 416.804C332.762 417.112 332.593 417.37 332.371 417.578C332.148 417.786 331.886 417.945 331.583 418.054C331.28 418.158 330.941 418.21 330.567 418.21C330.008 418.21 329.521 418.092 329.104 417.855C328.687 417.614 328.363 417.268 328.131 416.818C327.907 416.379 327.791 415.856 327.783 415.249H335.382V414.46C335.382 413.504 335.25 412.68 334.985 411.989C334.719 411.293 334.355 410.72 333.891 410.27C333.432 409.82 332.901 409.489 332.3 409.276C331.703 409.058 331.069 408.949 330.396 408.949C329.355 408.949 328.448 409.188 327.676 409.666C326.905 410.14 326.303 410.803 325.872 411.655C325.446 412.502 325.233 413.487 325.233 414.609C325.233 415.75 325.446 416.742 325.872 417.585C326.298 418.423 326.907 419.072 327.698 419.531ZM327.788 413.516C327.813 413.088 327.922 412.693 328.117 412.33C328.339 411.918 328.649 411.586 329.047 411.335C329.445 411.08 329.906 410.952 330.432 410.952C330.924 410.952 331.355 411.063 331.725 411.286C332.099 411.508 332.39 411.813 332.598 412.202C332.807 412.585 332.913 413.023 332.918 413.516H327.788ZM340.128 420V405.455H337.557V420H340.128ZM344.768 419.531C345.563 419.986 346.508 420.213 347.602 420.213C348.449 420.213 349.202 420.085 349.86 419.83C350.518 419.569 351.058 419.205 351.48 418.736C351.906 418.262 352.195 417.708 352.346 417.074L349.945 416.804C349.832 417.112 349.664 417.37 349.441 417.578C349.219 417.786 348.956 417.945 348.653 418.054C348.35 418.158 348.011 418.21 347.637 418.21C347.079 418.21 346.591 418.092 346.174 417.855C345.758 417.614 345.433 417.268 345.201 416.818C344.977 416.379 344.861 415.856 344.854 415.249H352.453V414.46C352.453 413.504 352.32 412.68 352.055 411.989C351.79 411.293 351.425 410.72 350.961 410.27C350.502 409.82 349.972 409.489 349.37 409.276C348.774 409.058 348.139 408.949 347.467 408.949C346.425 408.949 345.518 409.188 344.747 409.666C343.975 410.14 343.374 410.803 342.943 411.655C342.517 412.502 342.303 413.487 342.303 414.609C342.303 415.75 342.517 416.742 342.943 417.585C343.369 418.423 343.977 419.072 344.768 419.531ZM344.858 413.516C344.883 413.088 344.993 412.693 345.187 412.33C345.41 411.918 345.72 411.586 346.117 411.335C346.515 411.08 346.977 410.952 347.502 410.952C347.995 410.952 348.426 411.063 348.795 411.286C349.169 411.508 349.46 411.813 349.668 412.202C349.877 412.585 349.983 413.023 349.988 413.516H344.858ZM356.581 419.496C357.362 419.974 358.297 420.213 359.386 420.213C360.3 420.213 361.095 420.047 361.773 419.716C362.45 419.38 362.985 418.916 363.378 418.324C363.771 417.727 363.998 417.043 364.059 416.271H361.602C361.526 416.664 361.387 416.998 361.183 417.273C360.979 417.547 360.726 417.758 360.423 417.905C360.125 418.047 359.786 418.118 359.408 418.118C358.872 418.118 358.406 417.976 358.008 417.692C357.615 417.403 357.31 416.993 357.092 416.463C356.874 415.928 356.765 415.289 356.765 414.545C356.765 413.812 356.874 413.182 357.092 412.656C357.315 412.131 357.625 411.728 358.023 411.449C358.42 411.165 358.882 411.023 359.408 411.023C360.028 411.023 360.523 411.2 360.892 411.555C361.266 411.906 361.503 412.344 361.602 412.869H364.059C364.003 412.083 363.771 411.397 363.363 410.81C362.956 410.218 362.409 409.761 361.723 409.439C361.041 409.112 360.257 408.949 359.372 408.949C358.307 408.949 357.383 409.188 356.602 409.666C355.826 410.14 355.224 410.803 354.798 411.655C354.372 412.502 354.159 413.48 354.159 414.588C354.159 415.691 354.367 416.667 354.784 417.514C355.205 418.357 355.804 419.018 356.581 419.496ZM366.171 409.091V420H368.742V409.091H366.171ZM366.412 407.138C366.706 407.408 367.056 407.543 367.463 407.543C367.875 407.543 368.226 407.408 368.514 407.138C368.808 406.863 368.955 406.534 368.955 406.151C368.955 405.762 368.808 405.433 368.514 405.163C368.226 404.889 367.875 404.751 367.463 404.751C367.056 404.751 366.706 404.889 366.412 405.163C366.119 405.433 365.972 405.762 365.972 406.151C365.972 406.534 366.119 406.863 366.412 407.138ZM373.374 419.51C374.155 419.979 375.079 420.213 376.144 420.213C377.209 420.213 378.133 419.979 378.914 419.51C379.695 419.041 380.299 418.385 380.725 417.543C381.156 416.7 381.371 415.715 381.371 414.588C381.371 413.461 381.156 412.474 380.725 411.626C380.299 410.779 379.695 410.121 378.914 409.652C378.133 409.183 377.209 408.949 376.144 408.949C375.079 408.949 374.155 409.183 373.374 409.652C372.593 410.121 371.987 410.779 371.556 411.626C371.13 412.474 370.917 413.461 370.917 414.588C370.917 415.715 371.13 416.7 371.556 417.543C371.987 418.385 372.593 419.041 373.374 419.51ZM377.607 417.678C377.219 417.995 376.736 418.153 376.158 418.153C375.566 418.153 375.074 417.995 374.681 417.678C374.293 417.356 374.001 416.925 373.807 416.385C373.618 415.845 373.523 415.244 373.523 414.581C373.523 413.913 373.618 413.31 373.807 412.77C374.001 412.225 374.293 411.792 374.681 411.47C375.074 411.148 375.566 410.987 376.158 410.987C376.736 410.987 377.219 411.148 377.607 411.47C377.995 411.792 378.284 412.225 378.474 412.77C378.668 413.31 378.765 413.913 378.765 414.581C378.765 415.244 378.668 415.845 378.474 416.385C378.284 416.925 377.995 417.356 377.607 417.678ZM386.124 420V413.608C386.124 413.082 386.222 412.635 386.416 412.266C386.615 411.896 386.887 411.615 387.232 411.42C387.583 411.222 387.983 411.122 388.433 411.122C389.096 411.122 389.614 411.328 389.988 411.74C390.367 412.152 390.556 412.723 390.556 413.452V420H393.127V413.054C393.132 412.183 392.978 411.442 392.666 410.831C392.358 410.22 391.922 409.754 391.359 409.432C390.8 409.11 390.144 408.949 389.392 408.949C388.577 408.949 387.893 409.129 387.339 409.489C386.79 409.848 386.39 410.334 386.139 410.945H386.011V409.091H383.553V420H386.124ZM397.012 419.851C397.566 420.097 398.189 420.22 398.88 420.22C399.448 420.22 399.943 420.142 400.365 419.986C400.791 419.825 401.143 419.614 401.423 419.354C401.707 419.089 401.927 418.804 402.083 418.501H402.168V420H404.64V412.699C404.64 411.974 404.508 411.371 404.242 410.888C403.982 410.405 403.636 410.024 403.205 409.744C402.775 409.46 402.299 409.257 401.778 409.134C401.257 409.01 400.734 408.949 400.208 408.949C399.446 408.949 398.75 409.062 398.12 409.29C397.49 409.512 396.958 409.848 396.522 410.298C396.087 410.743 395.774 411.297 395.585 411.96L397.985 412.301C398.113 411.927 398.359 411.603 398.724 411.328C399.093 411.053 399.593 410.916 400.222 410.916C400.819 410.916 401.276 411.063 401.593 411.357C401.91 411.65 402.069 412.064 402.069 412.599V412.642C402.069 412.888 401.977 413.071 401.792 413.189C401.612 413.303 401.323 413.388 400.926 413.445C400.528 413.497 400.009 413.556 399.37 413.622C398.84 413.679 398.326 413.771 397.829 413.899C397.337 414.022 396.894 414.205 396.501 414.446C396.108 414.688 395.798 415.009 395.57 415.412C395.343 415.814 395.23 416.323 395.23 416.939C395.23 417.654 395.388 418.255 395.705 418.743C396.027 419.231 396.463 419.6 397.012 419.851ZM400.89 418.026C400.511 418.229 400.064 418.331 399.548 418.331C399.013 418.331 398.572 418.21 398.227 417.969C397.881 417.727 397.708 417.37 397.708 416.896C397.708 416.565 397.796 416.295 397.971 416.087C398.146 415.874 398.385 415.708 398.688 415.589C398.991 415.471 399.335 415.386 399.718 415.334C399.889 415.31 400.09 415.282 400.322 415.249C400.554 415.215 400.788 415.178 401.025 415.135C401.262 415.092 401.475 415.043 401.664 414.986C401.858 414.929 401.996 414.867 402.076 414.801V416.087C402.076 416.489 401.972 416.861 401.764 417.202C401.56 417.543 401.269 417.817 400.89 418.026ZM407.225 409.091V420H409.796V413.587C409.796 413.123 409.903 412.713 410.116 412.358C410.329 412.003 410.62 411.726 410.99 411.527C411.364 411.323 411.785 411.222 412.254 411.222C412.472 411.222 412.696 411.238 412.928 411.271C413.165 411.3 413.338 411.333 413.447 411.371V409.006C413.329 408.982 413.179 408.965 412.999 408.956C412.824 408.942 412.666 408.935 412.524 408.935C411.899 408.935 411.342 409.107 410.855 409.453C410.372 409.794 410.031 410.279 409.832 410.909H409.718V409.091H407.225ZM238.016 433.091V439.412C238.016 439.966 237.9 440.428 237.668 440.797C237.441 441.161 237.15 441.436 236.795 441.621C236.44 441.805 236.073 441.898 235.694 441.898C235.078 441.898 234.581 441.694 234.202 441.287C233.824 440.88 233.634 440.331 233.634 439.639V433.091H231.063V440.037C231.063 440.908 231.217 441.652 231.525 442.267C231.833 442.878 232.259 443.344 232.803 443.666C233.353 443.983 233.985 444.142 234.7 444.142C235.519 444.142 236.208 443.948 236.766 443.56C237.33 443.171 237.735 442.672 237.981 442.061H238.094V444H240.587V433.091H238.016ZM243.231 433.091V444H245.802V437.366C245.802 436.917 245.892 436.524 246.072 436.188C246.252 435.847 246.493 435.584 246.797 435.399C247.1 435.21 247.436 435.115 247.805 435.115C248.35 435.115 248.79 435.283 249.126 435.619C249.467 435.956 249.637 436.405 249.637 436.969V444H252.159V437.196C252.159 436.581 252.332 436.081 252.677 435.697C253.028 435.309 253.513 435.115 254.133 435.115C254.654 435.115 255.094 435.274 255.454 435.591C255.814 435.903 255.994 436.398 255.994 437.075V444H258.572V436.678C258.572 435.461 258.255 434.535 257.62 433.901C256.986 433.266 256.167 432.949 255.163 432.949C254.372 432.949 253.688 433.131 253.11 433.496C252.538 433.856 252.13 434.339 251.889 434.945H251.775C251.567 434.329 251.207 433.844 250.696 433.489C250.189 433.129 249.566 432.949 248.828 432.949C248.099 432.949 247.471 433.126 246.946 433.482C246.42 433.832 246.044 434.32 245.816 434.945H245.689V433.091H243.231ZM262.452 443.851C263.006 444.097 263.628 444.22 264.32 444.22C264.888 444.22 265.383 444.142 265.804 443.986C266.23 443.825 266.583 443.614 266.862 443.354C267.146 443.089 267.366 442.804 267.523 442.501H267.608V444H270.08V436.699C270.08 435.974 269.947 435.371 269.682 434.888C269.421 434.405 269.076 434.024 268.645 433.744C268.214 433.46 267.738 433.257 267.217 433.134C266.697 433.01 266.173 432.949 265.648 432.949C264.885 432.949 264.189 433.062 263.56 433.29C262.93 433.512 262.397 433.848 261.962 434.298C261.526 434.743 261.214 435.297 261.024 435.96L263.425 436.301C263.553 435.927 263.799 435.603 264.163 435.328C264.533 435.053 265.032 434.916 265.662 434.916C266.259 434.916 266.715 435.063 267.033 435.357C267.35 435.65 267.509 436.064 267.509 436.599V436.642C267.509 436.888 267.416 437.071 267.232 437.189C267.052 437.303 266.763 437.388 266.365 437.445C265.967 437.497 265.449 437.556 264.81 437.622C264.279 437.679 263.766 437.771 263.268 437.899C262.776 438.022 262.333 438.205 261.94 438.446C261.547 438.688 261.237 439.009 261.01 439.412C260.783 439.814 260.669 440.323 260.669 440.939C260.669 441.654 260.828 442.255 261.145 442.743C261.467 443.231 261.902 443.6 262.452 443.851ZM266.33 442.026C265.951 442.229 265.503 442.331 264.987 442.331C264.452 442.331 264.012 442.21 263.666 441.969C263.321 441.727 263.148 441.37 263.148 440.896C263.148 440.565 263.235 440.295 263.411 440.087C263.586 439.874 263.825 439.708 264.128 439.589C264.431 439.471 264.774 439.386 265.158 439.334C265.328 439.31 265.529 439.282 265.761 439.249C265.993 439.215 266.228 439.178 266.464 439.135C266.701 439.092 266.914 439.043 267.104 438.986C267.298 438.929 267.435 438.867 267.516 438.801V440.087C267.516 440.489 267.411 440.861 267.203 441.202C267 441.543 266.708 441.817 266.33 442.026ZM277.626 433.091V444H280.197V433.091H277.626ZM277.867 431.138C278.161 431.408 278.511 431.543 278.918 431.543C279.33 431.543 279.681 431.408 279.969 431.138C280.263 430.863 280.41 430.534 280.41 430.151C280.41 429.762 280.263 429.433 279.969 429.163C279.681 428.889 279.33 428.751 278.918 428.751C278.511 428.751 278.161 428.889 277.867 429.163C277.574 429.433 277.427 429.762 277.427 430.151C277.427 430.534 277.574 430.863 277.867 431.138ZM282.841 433.091V444H285.412V437.366C285.412 436.917 285.502 436.524 285.681 436.188C285.861 435.847 286.103 435.584 286.406 435.399C286.709 435.21 287.045 435.115 287.414 435.115C287.959 435.115 288.399 435.283 288.735 435.619C289.076 435.956 289.247 436.405 289.247 436.969V444H291.768V437.196C291.768 436.581 291.941 436.081 292.287 435.697C292.637 435.309 293.122 435.115 293.743 435.115C294.263 435.115 294.704 435.274 295.064 435.591C295.423 435.903 295.603 436.398 295.603 437.075V444H298.181V436.678C298.181 435.461 297.864 434.535 297.23 433.901C296.595 433.266 295.776 432.949 294.772 432.949C293.982 432.949 293.297 433.131 292.72 433.496C292.147 433.856 291.74 434.339 291.498 434.945H291.385C291.176 434.329 290.816 433.844 290.305 433.489C289.798 433.129 289.176 432.949 288.437 432.949C287.708 432.949 287.081 433.126 286.555 433.482C286.029 433.832 285.653 434.32 285.426 434.945H285.298V433.091H282.841ZM302.061 443.851C302.615 444.097 303.238 444.22 303.929 444.22C304.497 444.22 304.992 444.142 305.413 443.986C305.839 443.825 306.192 443.614 306.472 443.354C306.756 443.089 306.976 442.804 307.132 442.501H307.217V444H309.689V436.699C309.689 435.974 309.556 435.371 309.291 434.888C309.031 434.405 308.685 434.024 308.254 433.744C307.823 433.46 307.348 433.257 306.827 433.134C306.306 433.01 305.783 432.949 305.257 432.949C304.495 432.949 303.799 433.062 303.169 433.29C302.539 433.512 302.007 433.848 301.571 434.298C301.135 434.743 300.823 435.297 300.634 435.96L303.034 436.301C303.162 435.927 303.408 435.603 303.773 435.328C304.142 435.053 304.642 434.916 305.271 434.916C305.868 434.916 306.325 435.063 306.642 435.357C306.959 435.65 307.118 436.064 307.118 436.599V436.642C307.118 436.888 307.026 437.071 306.841 437.189C306.661 437.303 306.372 437.388 305.974 437.445C305.577 437.497 305.058 437.556 304.419 437.622C303.889 437.679 303.375 437.771 302.878 437.899C302.385 438.022 301.943 438.205 301.55 438.446C301.157 438.688 300.847 439.009 300.619 439.412C300.392 439.814 300.278 440.323 300.278 440.939C300.278 441.654 300.437 442.255 300.754 442.743C301.076 443.231 301.512 443.6 302.061 443.851ZM305.939 442.026C305.56 442.229 305.113 442.331 304.597 442.331C304.062 442.331 303.621 442.21 303.276 441.969C302.93 441.727 302.757 441.37 302.757 440.896C302.757 440.565 302.845 440.295 303.02 440.087C303.195 439.874 303.434 439.708 303.737 439.589C304.04 439.471 304.384 439.386 304.767 439.334C304.938 439.31 305.139 439.282 305.371 439.249C305.603 439.215 305.837 439.178 306.074 439.135C306.311 439.092 306.524 439.043 306.713 438.986C306.907 438.929 307.044 438.867 307.125 438.801V440.087C307.125 440.489 307.021 440.861 306.812 441.202C306.609 441.543 306.318 441.817 305.939 442.026ZM314.639 447.942C315.302 448.193 316.095 448.318 317.018 448.318C317.999 448.318 318.875 448.167 319.646 447.864C320.418 447.561 321.027 447.104 321.472 446.493C321.917 445.882 322.139 445.11 322.139 444.178V433.091H319.604V434.895H319.462C319.334 434.63 319.147 434.348 318.901 434.05C318.654 433.747 318.323 433.489 317.906 433.276C317.494 433.058 316.969 432.949 316.33 432.949C315.491 432.949 314.732 433.164 314.05 433.595C313.368 434.021 312.826 434.649 312.423 435.477C312.026 436.301 311.827 437.312 311.827 438.51C311.827 439.698 312.026 440.688 312.423 441.479C312.826 442.265 313.366 442.857 314.043 443.254C314.724 443.647 315.484 443.844 316.322 443.844C316.947 443.844 317.466 443.749 317.878 443.56C318.294 443.37 318.628 443.136 318.879 442.857C319.135 442.577 319.329 442.305 319.462 442.04H319.589V444.107C319.589 444.911 319.35 445.489 318.872 445.839C318.394 446.195 317.79 446.372 317.061 446.372C316.545 446.372 316.116 446.301 315.776 446.159C315.439 446.022 315.172 445.847 314.973 445.634C314.774 445.425 314.623 445.214 314.518 445.001L312.203 445.562C312.359 446.069 312.639 446.531 313.041 446.947C313.444 447.364 313.976 447.696 314.639 447.942ZM318.432 441.429C318.048 441.694 317.584 441.827 317.04 441.827C316.476 441.827 316 441.689 315.612 441.415C315.229 441.135 314.938 440.747 314.739 440.25C314.544 439.748 314.447 439.163 314.447 438.496C314.447 437.838 314.544 437.25 314.739 436.734C314.933 436.214 315.222 435.804 315.605 435.506C315.989 435.207 316.467 435.058 317.04 435.058C317.594 435.058 318.06 435.203 318.439 435.491C318.822 435.776 319.111 436.176 319.305 436.692C319.504 437.208 319.604 437.809 319.604 438.496C319.604 439.192 319.504 439.788 319.305 440.286C319.107 440.783 318.815 441.164 318.432 441.429ZM326.77 443.531C327.565 443.986 328.51 444.213 329.604 444.213C330.451 444.213 331.204 444.085 331.862 443.83C332.52 443.569 333.06 443.205 333.482 442.736C333.908 442.262 334.197 441.708 334.348 441.074L331.947 440.804C331.834 441.112 331.666 441.37 331.443 441.578C331.221 441.786 330.958 441.945 330.655 442.054C330.352 442.158 330.013 442.21 329.639 442.21C329.081 442.21 328.593 442.092 328.176 441.855C327.759 441.614 327.435 441.268 327.203 440.818C326.979 440.379 326.863 439.856 326.855 439.249H334.455V438.46C334.455 437.504 334.322 436.68 334.057 435.989C333.792 435.293 333.427 434.72 332.963 434.27C332.504 433.82 331.973 433.489 331.372 433.276C330.776 433.058 330.141 432.949 329.469 432.949C328.427 432.949 327.52 433.188 326.749 433.666C325.977 434.14 325.375 434.803 324.945 435.655C324.518 436.502 324.305 437.487 324.305 438.609C324.305 439.75 324.518 440.742 324.945 441.585C325.371 442.423 325.979 443.072 326.77 443.531ZM326.86 437.516C326.885 437.088 326.995 436.693 327.189 436.33C327.411 435.918 327.722 435.586 328.119 435.335C328.517 435.08 328.979 434.952 329.504 434.952C329.997 434.952 330.428 435.063 330.797 435.286C331.171 435.508 331.462 435.813 331.67 436.202C331.879 436.585 331.985 437.023 331.99 437.516H326.86ZM336.63 433.091V444H339.201V437.366C339.201 436.917 339.291 436.524 339.471 436.188C339.65 435.847 339.892 435.584 340.195 435.399C340.498 435.21 340.834 435.115 341.203 435.115C341.748 435.115 342.188 435.283 342.525 435.619C342.865 435.956 343.036 436.405 343.036 436.969V444H345.557V437.196C345.557 436.581 345.73 436.081 346.076 435.697C346.426 435.309 346.911 435.115 347.532 435.115C348.052 435.115 348.493 435.274 348.853 435.591C349.212 435.903 349.392 436.398 349.392 437.075V444H351.971V436.678C351.971 435.461 351.653 434.535 351.019 433.901C350.384 433.266 349.565 432.949 348.561 432.949C347.771 432.949 347.087 433.131 346.509 433.496C345.936 433.856 345.529 434.339 345.287 434.945H345.174C344.965 434.329 344.605 433.844 344.094 433.489C343.587 433.129 342.965 432.949 342.226 432.949C341.497 432.949 340.87 433.126 340.344 433.482C339.819 433.832 339.442 434.32 339.215 434.945H339.087V433.091H336.63Z" fill="#CCA78D"/>
</svg>
